<?xml version="1.0" encoding="UTF-8" standalone="no"?>
<!-- Created with Inkscape (http://www.inkscape.org/) -->

<svg
   width="140mm"
   height="197mm"
   viewBox="0 0 440 497"
   version="1.1"
   id="svg5"
   inkscape:version="1.1.1 (3bf5ae0d25, 2021-09-20)"
   sodipodi:docname="простой svg.svg"
   xmlns:inkscape="http://www.inkscape.org/namespaces/inkscape"
   xmlns:sodipodi="http://sodipodi.sourceforge.net/DTD/sodipodi-0.dtd"
   xmlns="http://www.w3.org/2000/svg"
   xmlns:svg="http://www.w3.org/2000/svg">
  <sodipodi:namedview
     id="namedview7"
     pagecolor="#ffffff"
     bordercolor="#666666"
     borderopacity="1.0"
     inkscape:pageshadow="2"
     inkscape:pageopacity="0.0"
     inkscape:pagecheckerboard="0"
     inkscape:document-units="mm"
     showgrid="false"
     inkscape:zoom="0.72337262"
     inkscape:cx="397.44385"
     inkscape:cy="561.95105"
     inkscape:window-width="1920"
     inkscape:window-height="1001"
     inkscape:window-x="-9"
     inkscape:window-y="-9"
     inkscape:window-maximized="1"
     inkscape:current-layer="layer1" />
  <defs
     id="defs2" />
  <g
     inkscape:label="Слой 1"
     inkscape:groupmode="layer"
     id="layer1">
    <path
       style="fill:#000000;fill-opacity:1;fill-rule:nonzero;stroke:none;stroke-width:0.264583"
       id="path96"
       d="m -140.73046,215.94088 c -0.16501,-3.13956 0.88767,-6.09602 2.03979,-8.96045 0.67973,-1.31716 1.61407,-3.22192 2.44565,-4.45107 1.68687,-2.49334 3.79626,-4.73716 6.08455,-6.68261 0.82184,-0.6987 1.69642,-1.33287 2.54464,-1.99931 0.96014,-0.64224 1.90172,-1.31315 2.88044,-1.92671 1.44797,-0.90774 5.47349,-2.79453 6.14764,-3.1039 3.14937,-1.44525 6.70144,-2.90033 9.95621,-4.08426 1.67822,-0.61045 3.3815,-1.14966 5.07225,-1.72449 11.444101,-3.51513 23.32775,-5.14575 35.160419,-6.70763 15.104012,-1.71955 30.159693,-3.81707 45.231227,-5.79283 10.696742,-1.39111 21.4554691,-2.31987 32.2380696,-2.66403 6.4374594,-0.20547 9.6297114,-0.15104 16.0561674,-0.1463 11.173462,0.0252 22.342215,0.54303 33.515857,0.53438 8.170032,-0.006 9.555702,-0.14115 17.756045,-0.46501 14.988481,-0.80068 29.947555,-2.66204 44.551475,-6.18995 2.90827,-0.70256 5.78276,-1.53823 8.67414,-2.30735 14.05518,-4.1325 27.6713,-9.76478 40.32488,-17.17556 3.26273,-1.91087 6.43746,-3.96818 9.65619,-5.95226 9.23204,-6.3616 18.45158,-13.36973 25.58454,-22.11646 4.20489,-5.1562 6.62335,-9.31568 10.197,-14.920946 5.69105,-10.00079 3.22785,-4.989505 7.48816,-14.985002 0,0 -0.54626,0.246978 -0.54626,0.246978 v 0 c -6.02465,10.49638 -3.02086,5.28048 -9.01089,15.64798 -3.80069,5.92522 -5.8366,9.48927 -10.31226,14.92687 -7.18259,8.72629 -16.25192,15.67368 -25.51783,22.02206 -1.91358,1.22714 -3.78139,2.52873 -5.74072,3.68141 -12.63598,7.43375 -26.26133,13.05027 -40.29696,17.22422 -2.89189,0.77391 -5.76669,1.61477 -8.67568,2.32174 -14.58934,3.54565 -29.538295,5.38473 -44.513809,6.21226 -2.977896,0.11637 -5.954451,0.27452 -8.933685,0.34912 -14.08992,0.35282 -28.178051,-0.36625 -42.266256,-0.45931 -6.62713,-0.007 -9.445703,-0.0663 -16.089385,0.15685 -10.81340435,0.36327 -21.604566,1.30239 -32.331038,2.7085 -15.075785,1.98217 -30.135961,4.08318 -45.245164,5.80318 -11.86857,1.55455 -23.785393,3.17708 -35.257403,6.72698 -1.70619,0.58319 -3.42463,1.13171 -5.11859,1.74955 -7.92181,2.88933 -15.74401,6.33926 -22.65589,11.21989 -0.83591,0.66771 -1.69967,1.30197 -2.50773,2.00313 -2.25599,1.95753 -4.34115,4.22833 -6.00411,6.71601 -0.94935,1.42017 -1.62631,2.92564 -2.37508,4.45199 -1.14115,2.89067 -2.21627,5.8887 -1.98769,9.05058 0,0 1.78109,-0.93824 1.78109,-0.93824 z" />
    <path
       style="fill:#000000;fill-opacity:1;fill-rule:nonzero;stroke:none;stroke-width:0.264583"
       id="path102"
       d="m -138.5569,215.57582 c 2.62684,-2.51236 5.70239,-3.85005 9.00443,-5.3046 3.88218,-1.7101 5.14048,-2.07558 9.15464,-3.5064 8.0466,-2.6894 16.38784,-4.47792 24.847026,-5.18736 2.01526,-0.16902 4.037719,-0.23698 6.05658,-0.35547 12.81494,-0.53364 25.57976,0.91275 38.255442,2.61754 10.446959,1.47763 20.799139,3.53961 31.230456,5.11642 2.384843,0.3605 4.77561,0.68066 7.163415,1.02099 9.8280033,1.35004 19.6979992,2.47431 29.597747,3.14751 5.947581,0.40445 11.9368,0.63176 17.891298,0.89374 14.064398,0.52028 28.151637,0.86773 42.220596,0.28772 2.659375,-0.10963 5.315612,-0.28541 7.97342,-0.42812 10.831108,-0.80755 21.63864,-2.01031 32.36594,-3.71947 5.68959,-0.90652 8.39795,-1.46479 13.99867,-2.53166 7.41488,-1.50844 14.83108,-3.10368 22.06758,-5.33858 3.70778,-1.1451 5.49866,-1.84411 9.11384,-3.1572 6.76523,-2.46516 13.27895,-5.53093 19.39291,-9.34234 0.98804,-0.61594 1.90687,-1.3365 2.8603,-2.00475 5.21085,-3.82868 9.65145,-8.53262 13.91209,-13.36173 4.42499,-5.04022 8.13631,-10.63043 11.54903,-16.38745 2.45372,-4.25706 4.64432,-8.66188 6.39754,-13.25268 1.49768,-4.48359 3.00298,-8.96589 4.44349,-13.46836 1.18981,-3.70128 2.20863,-7.45333 3.13445,-11.22827 0.57166,-2.49907 1.14906,-4.99866 1.62599,-7.5179 0.48594,-2.17425 0.96933,-4.34718 1.33047,-6.54608 0.38162,-2.21792 0.4177,-4.46495 0.4898,-6.706906 0.0618,-1.470152 0.054,-2.940693 -0.0419,-4.40877 -0.0769,-1.030507 -0.1649,-2.061168 -0.19234,-3.094318 -0.024,-0.891646 -0.03,-1.783475 0.0285,-2.673771 0.0549,-0.81765 0.11391,-1.63485 0.17816,-2.451896 0.0217,-0.425289 0.0368,-0.851104 8e-4,-1.275829 -0.10837,-0.495136 -0.2204,-0.986179 -0.28454,-1.489445 -0.1078,-1.331352 -0.008,-2.668522 0.0842,-3.997794 0.0736,-1.388663 0.21982,-2.7715 0.33547,-4.156808 0.10468,-1.397433 0.12813,-2.795299 0.04,-4.193622 -0.071,-0.906375 -0.14809,-1.812424 -0.22224,-2.718675 -0.12091,-0.832165 -0.14206,-1.672895 -0.21654,-2.509092 -0.0638,-0.08364 0.0517,-0.754385 -0.0658,-0.800057 -0.15865,-0.06167 -0.34043,5.29e-4 -0.51065,7.93e-4 0,0 -1.3788,0.714828 -1.3788,0.714828 v 0 c -0.64693,0.671507 -0.49985,0.508786 -0.50603,1.349288 -0.0136,0.861091 0.0646,1.72154 0.10589,2.581097 0.0737,0.905158 0.15265,1.809856 0.21044,2.716221 0.066,1.387739 0.0866,2.777447 -0.0673,4.161435 -0.12252,1.386261 -0.26228,2.7711 -0.33047,4.161578 -0.0783,1.350047 -0.16786,2.703791 -0.0904,4.056147 0.0424,0.509797 0.15996,1.001282 0.22795,1.506493 0.02,0.418737 -0.0228,0.837816 -0.0526,1.25522 -0.0535,0.830001 -0.14618,1.655755 -0.23217,2.482824 -0.0495,0.89894 -0.0429,1.797814 -0.0159,2.697649 0.0279,1.042755 0.0546,2.083832 0.16013,3.122848 0.0813,1.452753 0.12042,2.90717 0.0713,4.362182 -0.0599,2.24216 -0.23641,4.48279 -0.57568,6.70098 -0.38783,2.21009 -0.87281,4.39879 -1.4189,6.57519 -0.57688,2.50476 -1.05633,5.03176 -1.67007,7.52855 -0.88496,3.75268 -1.87491,7.48027 -3.04035,11.1566 -1.45682,4.51646 -2.97766,9.01338 -4.54034,13.49415 -1.7352,4.52978 -3.82722,8.91147 -6.23962,13.12192 -0.57627,0.9787 -1.13422,1.96842 -1.72882,2.93609 -2.90078,4.72081 -6.20374,9.18939 -9.81818,13.38706 -4.23387,4.80586 -8.65885,9.47832 -13.85988,13.26181 -0.96392,0.66443 -1.9298,1.32602 -2.89176,1.99329 -0.10568,0.0733 -0.19786,0.16725 -0.31103,0.22839 -4.53389,2.4493 -9.26726,4.50154 -14.08564,6.32186 -3.70762,1.36008 -5.32566,2.00318 -9.12994,3.19331 -7.29149,2.28105 -14.7572,3.95425 -22.23374,5.4961 -5.80805,1.12477 -8.14051,1.61995 -14.04899,2.58239 -10.73905,1.74931 -21.558589,3.00128 -32.41085,3.78107 -2.658993,0.14597 -5.316421,0.32398 -7.976978,0.43792 -14.098608,0.60377 -28.215597,0.30017 -42.311862,-0.20049 -7.838635,-0.34743 -10.022761,-0.38943 -17.799385,-0.94902 -9.8871261,-0.71145 -19.7444117,-1.80975 -29.564433,-3.15327 -2.375028,-0.34768 -4.752784,-0.67721 -7.125084,-1.04305 -10.429322,-1.60831 -20.78261,-3.68604 -31.240147,-5.11762 -12.704257,-1.69205 -25.496634,-3.11569 -38.33722,-2.61436 -2.016718,0.11164 -4.036962,0.17156 -6.05015,0.33493 -8.482781,0.68836 -16.844611,2.48644 -24.914411,5.17064 -4.50675,1.60191 -9.03276,3.20005 -13.28883,5.41221 -2.72347,1.41556 -5.38131,2.81688 -7.79958,4.69124 -0.44365,0.34387 -0.82985,0.75606 -1.24478,1.13409 0,0 2.34452,-0.99918 2.34452,-0.99918 z" />
    <path
       style="fill:#000000;fill-opacity:1;fill-rule:nonzero;stroke:none;stroke-width:0.264583"
       id="path104"
       d="m -135.76052,203.4087 c 0.1649,-0.17458 0.32235,-0.35651 0.49472,-0.52372 0.22158,-0.21496 0.44082,-0.43467 0.68625,-0.62194 0.30572,-0.23328 0.74541,-0.31867 0.96244,-0.63612 0.21108,-0.30873 -1.30068,0.49831 -0.94307,0.60779 0.42667,0.13062 0.81545,-0.36425 1.23409,-0.51869 0.43534,-0.16061 0.88361,-0.2837 1.32541,-0.42555 2.38317,-0.6674 4.84325,-0.88767 7.30749,-0.91026 1.78237,0.0268 3.56459,0.0634 5.34691,0.0942 1.62733,0.006 3.25328,0.0369 4.87826,0.12526 1.448,0.0732 2.89213,0.19102 4.33409,0.34002 1.4019,0.16202 2.80623,0.2961 4.21517,0.37693 0.88255,0.0464 1.76652,0.0574 2.65013,0.0552 0.74235,-0.0135 1.48494,-0.023 2.22483,-0.0878 0.61451,-0.0211 1.06639,-0.23544 1.632419,-0.48157 0,0 1.505183,-1.13289 1.505183,-1.13289 v 0 c -0.191617,-0.48451 -0.3995,-0.0498 -0.862793,-0.0719 -0.733222,0.0773 -1.469889,0.0864 -2.206519,0.10545 -0.88606,0.0114 -1.77253,0.002 -2.65813,-0.0289 -1.41289,-0.0633 -2.82195,-0.18139 -4.2264,-0.34936 -1.44493,-0.16352 -2.89234,-0.28851 -4.34561,-0.34984 -1.63379,-0.0914 -3.26823,-0.13128 -4.90479,-0.1205 -1.80579,-0.0161 -3.61136,-0.0658 -5.41726,-0.0531 -2.52282,0.0605 -5.04433,0.29483 -7.48987,0.95243 -2.91713,0.92756 -5.93138,2.22707 -7.94929,4.60378 0,0 2.20634,-0.94886 2.20634,-0.94886 z" />
    <path
       style="fill:#000000;fill-opacity:1;fill-rule:nonzero;stroke:none;stroke-width:0.264583"
       id="path106"
       d="m -88.89481,180.65251 c 2.194036,-0.1355 4.409543,-0.30308 6.605431,-0.0933 0.591079,0.0565 1.176845,0.15899 1.765268,0.23849 4.003987,0.72668 7.719462,2.47198 11.373369,4.19749 3.509436,1.67901 6.903685,3.58475 10.273061,5.52581 3.873728,2.30421 7.595595,4.85105 11.343016,7.35226 2.613326,1.76498 5.292389,3.42874 7.97624,5.08337 1.784823,1.14115 3.632885,2.16984 5.565415,3.03628 0.629769,0.18069 1.283393,0.62773 1.964071,0.62402 0.325236,-0.002 0.643855,-0.0926 0.965784,-0.13895 0,0 1.561817,-1.05789 1.561817,-1.05789 v 0 c -0.02061,-0.16349 0.04253,-0.36295 -0.06183,-0.49048 -0.19186,-0.23445 -1.567471,-0.44045 -1.802276,-0.68487 -1.940044,-0.82816 -3.767926,-1.88522 -5.566473,-2.98323 -2.693263,-1.65633 -5.391862,-3.30506 -8.042701,-5.02891 -3.78292,-2.47411 -7.532132,-5.00498 -11.409473,-7.33029 -3.376626,-1.9707 -6.81908,-3.82827 -10.351924,-5.50567 -3.729296,-1.71005 -7.515693,-3.40318 -11.573914,-4.16061 -0.591495,-0.0873 -1.179582,-0.20209 -1.774487,-0.26191 -2.24799,-0.22604 -4.512418,0.0186 -6.756844,0.15334 0,0 -2.05355,1.52507 -2.05355,1.52507 z" />
    <path
       style="fill:#000000;fill-opacity:1;fill-rule:nonzero;stroke:none;stroke-width:0.264583"
       id="path108"
       d="m -2.8740041,169.72451 c 2.53839451,0.86111 4.9536511,2.01441 7.3340655,3.23596 3.884414,1.92742 7.3333096,4.56918 10.7558956,7.20099 5.494164,4.26805 10.802818,8.76602 16.216088,13.13483 3.629686,2.8678 7.214999,5.85725 11.243296,8.15845 1.822741,1.00728 3.777636,1.6983 5.778108,2.24765 1.710185,0.45436 3.267388,1.32315 4.80359,2.17762 1.722898,0.92509 3.302183,2.06352 4.829601,3.27639 1.211093,0.95413 2.481297,1.81989 3.84211,2.54406 1.320803,0.65627 2.71163,1.1535 4.128167,1.55619 1.193421,0.3228 2.415381,0.50612 3.644685,0.61697 0.408713,-0.0563 1.245169,0.20789 1.624915,0.0835 0.30589,-0.10018 0.58384,-0.2712 0.87576,-0.4068 0,0 1.176899,-0.8481 1.176899,-0.8481 v 0 c 0.09587,-0.14323 0.300259,-0.25779 0.287623,-0.42969 -0.0079,-0.10715 -0.213963,-0.0203 -0.321194,-0.027 -0.42867,-0.0271 -0.858731,-0.0295 -1.287494,-0.0549 -1.22591,-0.089 -2.446893,-0.23988 -3.638058,-0.55505 -1.407292,-0.3803 -2.78925,-0.86013 -4.102007,-1.49874 -1.338734,-0.70957 -2.612131,-1.52921 -3.74713,-2.54002 -1.522404,-1.23884 -3.106237,-2.39434 -4.837602,-3.32933 -1.543224,-0.8719 -3.09899,-1.78045 -4.81952,-2.25528 -1.988701,-0.52815 -3.95501,-1.15679 -5.761146,-2.16553 -3.998653,-2.35412 -7.679796,-5.18465 -11.31393,-8.06092 -5.419098,-4.35658 -10.693112,-8.89107 -16.177048,-13.16721 -3.447063,-2.64513 -6.8879,-5.34472 -10.8406448,-7.21012 -2.4291213,-1.20693 -4.896775,-2.34481 -7.48033281,-3.18625 0,0 -2.21469649,1.50238 -2.21469649,1.50238 z" />
    <path
       style="fill:#000000;fill-opacity:1;fill-rule:nonzero;stroke:none;stroke-width:0.264583"
       id="path110"
       d="m 106.17782,165.78793 c 2.35139,0.48564 4.49732,1.63284 6.65405,2.64472 4.18808,2.2272 8.56326,4.06016 12.96676,5.80988 6.49984,2.61436 13.03948,5.12107 19.63318,7.48859 3.66777,1.27369 7.36938,2.48309 11.15763,3.35167 2.00083,0.45875 2.41573,0.48528 4.41704,0.79111 3.08666,0.45179 6.20089,0.62293 9.3169,0.54122 3.07416,-0.20452 6.14259,-0.4767 9.21782,-0.66763 1.72597,-0.11664 3.45933,-0.1763 5.16627,-0.47267 0.75268,-0.12306 1.45188,-0.42288 2.14451,-0.72816 0.50958,-0.31122 1.14609,-0.41077 1.65297,-0.72131 0.41824,-0.25625 0.8124,-0.54987 1.2186,-0.8248 0,0 0.60575,-0.47522 0.60575,-0.47522 v 0 c 0.1928,-0.19238 0.45578,-0.33393 0.5784,-0.57714 0.0524,-0.10391 -0.2259,0.0573 -0.33571,0.0958 -0.42338,0.14847 -0.82259,0.35953 -1.2354,0.53314 -0.68501,0.30926 -1.36992,0.63419 -2.10895,0.79384 -1.70318,0.34745 -3.4392,0.43327 -5.17182,0.5254 -3.07081,0.19426 -6.13478,0.47027 -9.20495,0.67083 -3.12195,0.10548 -6.24574,-0.0434 -9.3444,-0.45208 -5.33001,-0.82197 -10.53195,-2.24514 -15.61559,-4.04503 -6.59125,-2.33207 -13.09089,-4.89938 -19.57483,-7.51362 -4.4009,-1.78466 -8.73492,-3.70621 -13.01774,-5.7582 -2.24899,-1.01351 -4.52937,-2.0288 -6.95742,-2.52936 0,0 -2.16307,1.51904 -2.16307,1.51904 z" />
    <path
       style="fill:#000000;fill-opacity:1;fill-rule:nonzero;stroke:none;stroke-width:0.264583"
       id="path112"
       d="m 179.51192,135.06251 c 2.48323,0.11781 4.95316,0.43768 7.41948,0.73883 3.83686,0.46361 7.63965,1.16062 11.45299,1.78087 3.47104,0.57334 6.97716,0.90362 10.4922,1.01703 2.32165,0.0929 4.62939,-0.15879 6.91721,-0.52443 1.17015,-0.18899 2.31924,-0.47689 3.45211,-0.82163 0.4232,-0.10351 0.7674,-0.33291 1.12186,-0.57568 0,0 1.49727,-1.14674 1.49727,-1.14674 v 0 c 0.42977,-0.43022 0.096,-0.21244 -0.1934,-0.15741 -1.12627,0.3777 -2.2802,0.67167 -3.45061,0.87639 -2.28318,0.39112 -4.58908,0.64993 -6.91026,0.59121 -3.52805,-0.0811 -7.05089,-0.37441 -10.53649,-0.9369 -3.84355,-0.62528 -7.68361,-1.27423 -11.55301,-1.72449 -2.51929,-0.30425 -5.04827,-0.67085 -7.59073,-0.65894 0,0 -2.11862,1.54189 -2.11862,1.54189 z" />
    <path
       style="fill:#000000;stroke-width:1.38241"
       d="m -531.51752,812.48247 c 0.0643,-9.69125 11.51942,-41.09579 14.9901,-41.09579 0.75146,0 3.22358,-1.56281 5.4936,-3.4729 10.30999,-8.67528 27.98145,-10.9587 69.75518,-9.01343 44.60688,2.07721 45.05761,2.22389 23.51346,7.65198 -39.74477,10.01377 -77.09733,25.1944 -102.36786,41.6038 -10.48427,6.80795 -11.40326,7.15718 -11.38448,4.32634 z"
       id="path227"
       transform="scale(0.26458333)" />
    <path
       style="fill:#000000;stroke-width:1.38241"
       d="m 180.40495,804.4668 c -86.199158,-2.03958 -142.925262,-6.25289 -214.274078,-15.91516 -40.640466,-5.50365 -76.522942,-11.57411 -77.469712,-13.106 -0.4793,-0.77552 -4.55113,-3.15162 -9.04852,-5.28025 -9.23856,-4.37262 -33.0172,-18.86497 -67.62086,-41.21284 -28.44019,-18.36735 -48.73363,-29.75186 -69.55912,-39.02227 -21.29669,-9.48016 -31.90709,-12.60583 -46.56361,-13.717 l -12.44172,-0.94326 31.79551,-4.4461 c 17.48753,-2.44536 44.85931,-6.02623 60.82619,-7.9575 15.96687,-1.93126 54.84725,-6.91849 86.40084,-11.08273 57.765053,-7.62346 97.18464,-12.18614 118.887549,-13.76082 10.229486,-0.74221 11.4373559,-0.60125 9.3312905,1.08899 -2.7520115,2.20864 -3.1224155,3.71037 -0.9151575,3.71037 0.827236,0 6.5815318,2.22528 12.7873238,4.94507 23.4037202,10.25705 42.7478442,23.71415 91.4632362,63.62813 51.032898,41.81278 64.107848,50.85622 82.553058,57.09876 15.66444,5.30143 25.72631,10.60423 41.16766,21.69613 7.22021,5.18644 16.5515,10.83868 20.7362,12.56049 l 7.60856,3.13058 -11.05931,-0.19213 c -6.08262,-0.10561 -30.65502,-0.65579 -54.60533,-1.22246 z"
       id="path266"
       transform="scale(0.26458333)" />
    <path
       style="fill:#000000;stroke-width:1.38241"
       d="m 612.40914,694.05333 c -7.60328,-1.35126 -20.045,-4.15816 -27.64827,-6.23756 -27.12851,-7.41933 -95.08951,-33.64127 -138.32149,-53.3697 -12.96965,-5.91855 -25.72241,-11.32801 -28.33948,-12.02101 -5.68211,-1.50465 -4.87969,-1.8365 12.52188,-5.17854 19.41402,-3.72854 63.01072,-15.3032 83.63601,-22.20485 56.35426,-18.85731 102.57009,-40.64864 151.95048,-71.64651 l 19.23881,-12.07689 12.5567,1.57069 c 6.90619,0.86388 24.37634,3.53217 38.82256,5.92954 22.98317,3.81408 29.59358,4.36297 52.89201,4.39191 19.41842,0.0241 26.4619,0.46154 26.01936,1.61589 -0.33374,0.87055 -3.16392,8.95767 -6.28929,17.97137 -11.48508,33.12351 -36.55253,78.44133 -58.76941,106.24542 -15.55686,19.46918 -35.57791,40.61427 -39.93575,42.17787 -5.85397,2.10039 -48.96033,5.47582 -68.61223,5.37265 -8.74377,-0.0459 -22.11862,-1.18904 -29.72189,-2.54028 z"
       id="path305"
       transform="scale(0.26458333)" />
    <path
       style="fill:#000000;stroke-width:0.264583"
       id="path467"
       d="m 64.59417,212.51306 c 2.254433,0.75552 4.531696,1.43697 6.847816,1.97522 2.243826,0.53863 4.517914,0.56719 6.794897,0.30198 2.397879,-0.29363 4.73274,-0.90146 7.047894,-1.57102 2.824655,-0.84112 5.644428,-1.69863 8.463611,-2.55789 3.450156,-1.08519 6.821012,-2.40125 10.175322,-3.74887 4.37922,-1.63929 8.33879,-4.12788 12.33429,-6.5132 2.45703,-1.62902 4.91607,-3.26259 7.25396,-5.06026 2.08398,-1.60548 3.83974,-3.56729 5.41986,-5.65782 1.12498,-1.55967 1.88716,-3.12948 2.3185,-4.99568 0.30289,-1.56379 -10e-4,-3.12621 -0.37152,-4.64819 -0.30187,-1.272 -0.78872,-2.47515 -1.43503,-3.60781 -0.63054,-1.07523 -1.52934,-1.93041 -2.46028,-2.74096 -1.07454,-0.93293 -2.2918,-1.67132 -3.56645,-2.29346 -1.73003,-0.832 -3.56855,-1.38045 -5.42547,-1.84293 -2.13286,-0.5016 -4.32918,-0.61109 -6.50947,-0.72394 -1.54957,-0.0641 -3.08839,-0.24819 -4.62058,-0.47933 -1.26702,-0.21332 -2.52808,-0.45814 -3.79864,-0.65029 -1.49331,-0.22432 -2.99946,-0.33529 -4.505508,-0.42912 -1.584774,-0.10004 -3.165586,-0.25019 -4.750194,-0.3524 -1.376846,-0.0677 -2.753759,-0.13493 -4.131921,-0.16794 -1.371745,-0.0278 -2.743798,-0.0305 -4.115755,-0.0368 -1.217226,-0.004 -2.434455,-0.004 -3.651686,-0.005 -1.058916,0.0104 -2.119453,-0.0264 -3.176913,0.0382 -1.629881,0.23225 -3.235796,0.60929 -4.848757,0.93608 -1.716905,0.36062 -3.443716,0.67004 -5.167371,0.99575 -1.680776,0.30482 -3.322026,0.75065 -4.891487,1.42396 -2.975641,1.44434 -5.829294,3.12843 -8.404997,5.20381 -1.407898,1.1827 -2.652625,2.53696 -3.798319,3.9707 -0.78958,1.05935 -1.616366,2.09038 -2.395635,3.15736 -0.808162,1.06991 -1.360078,2.2723 -1.793193,3.5329 -0.43272,1.42053 -0.641397,2.89233 -0.626213,4.37465 0.04388,1.45699 0.692288,2.73862 1.406882,3.97116 0.698564,1.20616 1.645632,2.23615 2.560617,3.278 0.886939,0.98809 1.753396,1.9952 2.69267,2.93437 1.19068,1.04912 2.580396,1.848 3.957595,2.62512 1.278474,0.69371 2.648426,1.19598 4.001317,1.72198 1.671659,0.64439 3.401933,1.1193 5.152268,1.49207 2.017401,0.40243 4.067035,0.57143 6.117924,0.67682 2.753918,0.10654 5.511138,0.12016 8.265948,0.0478 1.97398,-0.071 3.946485,-0.17556 5.920952,-0.23307 1.582179,-0.0365 3.164789,-0.0376 4.746947,-0.0759 1.788092,-0.0234 3.555143,-0.26944 5.307034,-0.60951 2.261105,-0.39494 4.368355,-1.25626 6.410345,-2.27412 2.69307,-1.5153 5.55476,-2.86826 7.67125,-5.16489 1.30324,-1.40848 1.72082,-3.25888 2.1586,-5.06957 0.73808,-2.9205 0.13982,-5.79763 -0.71122,-8.61218 -0.80664,-2.52257 -2.14896,-4.77033 -3.81179,-6.81175 -1.86972,-2.17521 -4.28281,-3.63629 -6.81533,-4.90336 -1.946512,-0.99048 -4.032934,-1.60684 -6.154871,-2.08073 -1.915639,-0.40235 -3.874977,-0.52288 -5.825083,-0.62653 -2.520775,-0.17397 -4.999238,0.21016 -7.454643,0.73247 -2.581196,0.56894 -5.039162,1.53598 -7.446775,2.60679 -2.130446,1.01665 -4.152519,2.26264 -6.147466,3.51529 -0.382985,0.24048 -1.293964,1.01107 -1.595816,1.35167 -0.246052,0.27763 -0.440103,0.59732 -0.660154,0.89598 -1.570567,2.41816 -1.532633,5.26515 -1.289704,8.03107 0.211998,1.66349 0.778997,3.26526 1.860926,4.56933 0.698045,0.84137 1.181555,1.17488 2.022168,1.87208 2.640809,1.9496 5.580351,3.41484 8.631724,4.59453 2.44996,0.79796 4.995238,1.50179 7.592375,1.55009 1.854737,0.0345 2.507028,-0.15549 4.316698,-0.45225 0.654328,-0.19816 1.328529,-0.33976 1.962984,-0.59448 1.563788,-0.62782 5.568021,-3.27527 6.020879,-3.60682 0.562057,-0.41148 1.370005,-1.65404 1.59638,-2.33085 0.133709,-0.39976 0.130024,-0.83296 0.195035,-1.24945 -0.213802,-2.95792 -2.048913,-4.7772 -4.261459,-6.50919 -2.245535,-1.51243 -4.817438,-2.20689 -7.483837,-2.43422 -1.557232,0.0196 -3.151317,0.23283 -4.531064,1.01038 -3.874347,2.18337 -2.878984,1.23683 -4.453824,2.92836 -0.112768,0.2894 -0.290089,0.56136 -0.338307,0.86819 -0.05397,0.34342 -0.0095,0.69785 0.03809,1.04221 0.20529,1.48536 0.962461,2.3313 2.070589,3.24092 1.371931,0.94174 2.889409,0.96532 4.427043,0.49202 1.473681,-0.67403 1.146061,-0.50561 3.686714,-2.12614 0.131332,-0.0838 0.375116,-0.54867 -0.02405,-0.61872 -0.428551,-0.0752 -0.867643,0.0667 -1.301465,0.10008 0,0 -0.940191,0.56639 -0.940191,0.56639 v 0 c -0.260017,0.34552 -0.483013,0.71919 -0.759254,1.05188 -0.05417,0.0652 -0.125851,0.11369 -0.188777,0.17054 0.888471,-0.50223 1.776941,-1.00446 2.665412,-1.50669 0.122542,-0.0694 -0.245861,0.13741 -0.368792,0.20612 -1.424091,0.5483 -2.862416,0.63566 -4.197966,-0.21996 -1.039678,-0.80127 -1.786483,-1.58108 -1.906654,-2.96767 -0.02627,-0.30327 -0.03726,-0.6177 0.03906,-0.91237 0.07072,-0.27302 0.261015,-0.50002 0.39152,-0.75003 1.186,-1.09269 1.109845,-0.92895 -1.626042,0.65594 -0.307162,0.17793 0.623306,-0.34256 0.950434,-0.48039 1.116629,-0.47048 2.296872,-0.64876 3.501014,-0.70055 2.6244,0.16362 5.161735,0.79996 7.393054,2.24829 2.133005,1.62529 3.936002,3.3342 4.063807,6.18213 -0.23268,1.13318 -0.136703,1.27063 -0.86845,2.2483 -0.293735,0.39246 -1.42331,0.83027 -1.000313,1.07801 0.507341,0.29714 1.760847,-1.28929 1.609717,-0.72109 -0.151876,0.57099 -3.310914,1.46571 -3.600741,1.56036 -1.759397,0.31775 -2.434169,0.52504 -4.238696,0.50587 -2.559669,-0.0272 -5.071155,-0.74101 -7.490992,-1.50084 -3.023052,-1.15081 -5.919073,-2.60186 -8.538385,-4.51722 -2.276816,-1.87915 -3.325976,-3.19859 -3.719684,-6.20671 -0.229785,-2.71079 -0.204597,-5.47082 1.418482,-7.79005 0.734523,-0.86382 0.649676,-0.84977 1.511125,-1.541 0.27269,-0.21881 1.165315,-0.76096 0.84441,-0.62218 -0.775529,0.33536 -1.475624,0.82385 -2.22285,1.21827 -0.691443,0.36497 2.822853,-1.60827 2.0657,-1.11111 2.388889,-1.08909 4.831795,-2.06706 7.396033,-2.66444 2.430931,-0.54306 4.88692,-0.96056 7.390289,-0.8061 1.940877,0.0905 3.884435,0.22564 5.799074,0.57205 2.125122,0.43755 4.225877,1.00378 6.189784,1.94873 2.503925,1.22147 4.904435,2.62721 6.751155,4.76382 1.63794,2.00157 2.97406,4.19894 3.76552,6.67905 0.86068,2.82481 1.36745,5.53308 0.5964,8.45636 -0.46079,1.79392 -0.98181,3.57333 -2.3113,4.93319 -0.58268,0.58685 -1.17579,1.11484 -1.85125,1.59586 -0.25832,0.18395 -1.07323,0.67195 -0.78851,0.5323 0.54327,-0.26648 3.80566,-2.15315 1.15142,-0.62334 -2.01853,1.04397 -4.10287,1.94247 -6.3529,2.35468 -1.730999,0.35166 -3.478141,0.60703 -5.247825,0.6409 -1.581991,0.0533 -3.164612,0.0429 -4.747059,0.0758 -1.996053,0.0587 -3.988347,0.18628 -5.98297,0.27873 -2.753026,0.085 -5.508201,0.0693 -8.261196,-0.0169 -2.039517,-0.0983 -4.079745,-0.25339 -6.089849,-0.62896 -1.731999,-0.35425 -3.438495,-0.82976 -5.090482,-1.46388 -1.343851,-0.5176 -2.706458,-1.00485 -3.98399,-1.67496 -1.362954,-0.74093 -2.730426,-1.51615 -3.900551,-2.54422 -0.938649,-0.92997 -1.792465,-1.94033 -2.690408,-2.90907 -0.905663,-1.01819 -1.826916,-2.03927 -2.507054,-3.22795 -0.69143,-1.18577 -1.308939,-2.40362 -1.292257,-3.81554 0.03429,-1.44991 0.23672,-2.89089 0.694169,-4.27241 0.460531,-1.23915 1.065115,-2.40483 1.878505,-3.45353 0.791966,-1.05284 1.597935,-2.0952 2.398085,-3.14182 1.147387,-1.40488 2.38302,-2.73977 3.796747,-3.88343 0.757968,-0.59463 0.946764,-0.76154 1.741202,-1.30931 0.301884,-0.20816 1.245939,-0.77038 0.918305,-0.6057 -4.791183,2.40814 -1.46308,0.9619 -0.492892,0.33522 1.538372,-0.69722 3.153719,-1.16306 4.814985,-1.47182 1.72153,-0.31892 3.44501,-0.62735 5.159589,-0.98272 1.599015,-0.32561 3.192529,-0.68301 4.801122,-0.95816 1.057542,-0.0974 2.122148,-0.0624 3.183075,-0.0777 1.222139,-0.001 2.444271,-0.003 3.666408,-0.006 1.378656,-0.003 2.757352,-0.001 4.135942,0.014 1.388774,0.0193 2.777072,0.0587 4.164346,0.12789 1.596213,0.0767 3.188047,0.2169 4.782185,0.32649 1.496703,0.0953 2.994046,0.19589 4.479478,0.41072 1.2737,0.18487 2.53887,0.41986 3.80624,0.64321 1.55165,0.23838 3.11492,0.39944 4.683,0.479 2.18371,0.10393 4.38089,0.184 6.52794,0.63208 1.8608,0.42674 3.70137,0.95147 5.44551,1.74024 1.25599,0.60492 2.46543,1.30806 3.53728,2.20708 0.90556,0.78296 1.79516,1.59928 2.41202,2.63988 0.64017,1.09966 1.11291,2.27241 1.41367,3.5116 0.36151,1.48391 0.64264,3.00373 0.2776,4.51896 -0.44683,1.78823 -1.29321,3.40819 -2.40335,4.88076 -1.5965,2.06351 -3.36234,3.99686 -5.45334,5.57441 -2.33754,1.76368 -4.76283,3.40877 -7.21287,5.01159 0.41144,-0.21339 1.59707,-0.92868 1.23433,-0.64016 -0.48203,0.38342 -1.05945,0.62881 -1.59733,0.92889 -2.02373,1.12904 -4.12346,2.11417 -6.27545,2.97295 -3.34616,1.35536 -6.70613,2.68922 -10.153363,3.76923 -2.813158,0.8492 -5.62389,1.70648 -8.440205,2.54518 -2.302751,0.66745 -4.622194,1.28963 -7.004211,1.60573 -2.263572,0.287 -4.525598,0.31145 -6.770466,-0.17956 -2.349875,-0.50098 -4.644749,-1.1945 -6.944291,-1.88565 0,0 -2.627849,1.79995 -2.627849,1.79995 z" />
    <path
       style="fill:#000000;stroke-width:0.264583"
       id="path469"
       d="m 185.15405,184.96709 c -0.90488,1.50933 -2.06994,2.81312 -3.31257,4.04723 -1.164,1.19368 -2.43844,2.25016 -3.82244,3.17568 -2.12097,1.25666 0.95839,-0.536 1.4282,-0.81995 0.22739,-0.13744 -0.46684,0.25389 -0.7021,0.37739 -0.67725,0.35553 -1.36469,0.69153 -2.05135,1.02833 -1.61118,0.76506 -3.23605,1.50029 -4.84478,2.27063 -1.85955,0.92239 -3.72328,1.8347 -5.6245,2.66838 -1.8606,0.80304 -3.76423,1.49839 -5.69937,2.09773 -1.63311,0.51789 -3.31318,0.82683 -5.01418,1.00062 -2.0169,0.16457 -4.04273,0.14609 -6.06436,0.12036 -1.67106,-0.036 -3.34235,-0.0399 -5.0124,-0.11143 -2.09086,-0.11039 -4.14867,-0.50087 -6.17361,-1.01551 -1.3924,-0.32702 -2.64729,-0.9369 -3.79428,-1.7777 -0.87383,-0.72438 -1.7547,-1.57981 -2.04157,-2.72383 -0.0783,-0.31221 -0.0957,-0.6366 -0.14353,-0.9549 -0.0611,-1.86395 0.13044,-3.84165 1.14149,-5.46085 0.21179,-0.33917 0.47387,-0.64422 0.7108,-0.96633 0.84162,-0.87021 1.04359,-1.15845 2.07802,-1.87593 0.46771,-0.3244 0.89002,-0.89388 1.45918,-0.88698 0.53262,0.006 -1.78976,0.62286 -1.32811,0.88857 0.53441,0.3076 1.14319,-0.46511 1.72889,-0.65789 0.58013,-0.19095 1.17662,-0.32806 1.76493,-0.49209 2.04732,-0.45553 4.14806,-0.7011 6.23919,-0.43069 1.15019,0.14873 1.51329,0.28678 2.60706,0.58576 1.47879,0.57498 3.21832,1.2323 4.10151,2.66162 0.15969,0.25845 0.25196,0.55291 0.37794,0.82936 0.56852,2.40989 -0.28331,3.96185 -1.77011,5.78413 0.85676,-0.044 -2.75945,1.88977 -1.9431,1.65225 0.57976,-0.16868 1.42931,-0.3475 1.54879,-0.93936 0.10742,-0.53214 -0.98501,0.45863 -1.49129,0.65455 -1.3527,0.52346 -1.79851,0.58874 -3.20248,0.94012 -1.96442,0.33635 -4.11571,0.82008 -6.0746,0.16191 -0.25493,-0.0857 -0.49135,-0.21882 -0.73703,-0.32822 -0.19789,-0.15462 -0.42054,-0.28194 -0.59366,-0.46386 -0.75286,-0.79117 -1.02382,-2.09782 -0.78335,-3.14615 0.071,-0.30946 0.22006,-0.59564 0.33009,-0.89346 0.20601,-0.30373 0.38719,-0.62588 0.61805,-0.91119 0.48367,-0.59775 1.05666,-1.10653 1.69572,-1.53215 0.30468,-0.20292 1.25397,-0.75307 0.95612,-0.54025 -1.75958,1.25728 -2.7881,1.49367 -1.02258,0.94227 0.95203,-0.17116 2.61834,-0.34788 3.1497,0.76419 0.0747,0.15633 0.0614,0.34103 0.0921,0.51155 -0.14324,0.5964 -0.0849,0.62724 -0.50259,1.13991 -0.1618,0.19862 -0.41616,0.32141 -0.54274,0.54413 -0.0395,0.0694 0.0758,0.14058 0.11365,0.21086 0,0 1.13671,-0.45233 1.13671,-0.45233 v 0 c 1.04904,-0.60765 2.31214,-1.09166 2.70994,-2.36477 0.0693,-0.22178 0.0519,-0.4618 0.0779,-0.69269 -0.0618,-0.21438 -0.0796,-0.44665 -0.18525,-0.64311 -0.63672,-1.18362 -2.2804,-1.21524 -3.41122,-1.05135 -2.24404,0.61022 -0.88587,0.16734 -4.70833,2.28294 -1.36231,0.75399 -2.47847,1.81135 -3.19154,3.20646 -0.0999,0.32512 -0.23981,0.64054 -0.29966,0.97534 -0.27275,1.52581 0.33836,3.05388 1.56854,3.96257 0.25865,0.12479 0.50665,0.27465 0.77597,0.37437 1.98702,0.7358 4.18591,0.28693 6.19925,-0.0503 0.54255,-0.12584 1.09025,-0.23125 1.62764,-0.37753 3.42615,-0.93261 6.76203,-2.688 9.21517,-5.27467 1.52299,-1.99472 2.28772,-3.6007 1.65538,-6.14588 -0.1378,-0.30405 -0.23947,-0.62723 -0.41339,-0.91216 -0.9146,-1.49835 -2.66889,-2.23578 -4.22221,-2.83805 -1.10254,-0.30761 -1.50512,-0.45638 -2.66113,-0.62376 -2.12283,-0.30737 -4.25539,-0.0845 -6.34333,0.35737 -3.68048,0.96388 -4.17841,1.36054 -8.04646,3.56628 -1.34607,0.7676 -2.56584,1.69844 -3.5401,2.9118 -0.23273,0.34041 -0.49282,0.66366 -0.69819,1.02125 -0.97852,1.70382 -1.1433,3.74212 -1.0677,5.66269 0.0546,0.34332 0.0776,0.69319 0.16386,1.02997 0.30832,1.20432 1.21221,2.11213 2.10124,2.91787 1.15052,0.89107 2.42267,1.56043 3.84492,1.91228 2.02712,0.54292 4.09379,0.92358 6.18705,1.09674 1.67571,0.0981 3.35431,0.10095 5.03251,0.11456 2.02605,0.0196 4.05503,0.049 6.07828,-0.0824 1.72771,-0.15566 3.4356,-0.44273 5.09338,-0.96963 1.95413,-0.58817 3.86957,-1.29216 5.7502,-2.08522 1.91301,-0.83064 3.78799,-1.74204 5.65334,-2.67435 1.61882,-0.78402 3.25447,-1.53093 4.88184,-2.29674 2.45661,-1.20805 4.87993,-2.49199 7.17534,-3.99041 1.32335,-0.93092 2.52735,-2.00164 3.64433,-3.17337 1.1818,-1.25638 2.26979,-2.5899 3.18029,-4.05944 0,0 -2.81328,1.23684 -2.81328,1.23684 z" />
    <path
       style="fill:#000000;stroke-width:0.264583"
       id="path471"
       d="m -2.8556423,169.23653 c 1.98079998,1.48382 4.0961795,2.77356 6.2550386,3.97855 2.3047401,1.24347 4.5977994,2.50834 6.9007467,3.75513 2.270022,1.22393 4.611859,2.30844 6.969573,3.35102 2.240403,0.98869 4.567286,1.7587 6.887865,2.53293 1.786759,0.62419 3.609781,1.12535 5.466116,1.49031 1.883471,0.3398 3.801284,0.39304 5.709735,0.43982 2.494372,0.0925 4.909563,-0.51182 7.22422,-1.38404 2.521722,-1.24754 5.239975,-2.47102 7.177013,-4.57681 0.666816,-0.72491 0.823492,-1.04736 1.338239,-1.85787 0.574622,-1.13188 1.169183,-2.41653 0.980183,-3.72786 -0.031,-0.21511 -0.106029,-0.42153 -0.159044,-0.63229 -0.514416,-1.46849 -1.580824,-2.53261 -2.756622,-3.495 -1.846236,-1.39239 -3.993462,-2.21314 -6.216668,-2.76742 -2.304682,-0.51609 -4.640615,-0.55727 -6.967585,-0.21797 -1.388391,0.2446 -2.744055,0.65705 -3.958392,1.38591 -3.950599,2.37118 -2.803451,1.27556 -4.473215,3.05757 -1.31836,1.97838 -1.588053,4.15537 0.100214,6.077 0.400111,0.45542 0.921903,0.78746 1.382855,1.18118 2.521625,1.6086 5.493655,2.56656 8.512164,2.39502 0.405914,-0.0231 0.804881,-0.11561 1.207321,-0.17341 1.575699,-0.61471 4.702029,-1.4687 4.529552,-3.34207 -0.100417,-1.09067 -1.120036,-1.63242 -1.924624,-2.14171 -0.366413,-0.16225 -1.691081,-0.81778 -2.154462,-0.75748 -0.576964,0.0751 -1.08422,0.42257 -1.62633,0.63386 0,0 -1.546921,1.18586 -1.546921,1.18586 v 0 c 0.843497,0.22625 1.714468,0.31686 2.484826,0.77271 0.58197,0.34692 1.125487,0.56218 1.502503,1.15412 0.115419,0.18121 0.197921,0.40032 0.192561,0.6151 -0.0052,0.20882 -0.424357,0.63961 -0.22252,0.58581 0.846516,-0.22562 1.57825,-0.7612 2.360499,-1.15563 0.287054,-0.14474 -0.583089,0.27094 -0.874633,0.40641 -0.385329,0.0678 -0.766096,0.17087 -1.155989,0.20346 -2.947289,0.24641 -5.870622,-0.66462 -8.34681,-2.2148 -0.434274,-0.36714 -0.926566,-0.67502 -1.302824,-1.10142 -1.596313,-1.80905 -1.194345,-3.93058 0.159758,-5.6837 1.404953,-1.34663 0.797898,-0.64192 -1.561021,0.53098 -0.291129,0.14475 0.548799,-0.35065 0.838237,-0.49877 0.968928,-0.49583 2.026169,-0.79847 3.086815,-1.01928 2.345028,-0.41875 4.625922,-0.41021 6.970911,0.0491 2.199153,0.49007 4.344389,1.26271 6.173472,2.61354 1.120111,0.91131 2.163339,1.90402 2.643897,3.30771 0.332102,1.51104 -0.136917,2.77375 -0.89,4.09477 -0.665047,0.99088 -1.339824,1.85165 -2.275449,2.61015 -0.326885,0.265 -1.431089,0.83866 -1.02163,0.7416 0.600903,-0.14244 1.121563,-0.53109 1.627497,-0.88521 0.386008,-0.27019 -0.843137,0.42085 -1.264706,0.63128 -2.265383,0.90059 -4.642307,1.52505 -7.101424,1.45351 -1.893642,-0.0427 -3.79585,-0.0865 -5.667881,-0.40262 -1.860528,-0.34012 -3.689125,-0.8199 -5.481005,-1.42766 -2.332708,-0.75688 -4.677131,-1.49671 -6.932517,-2.46636 -2.378646,-1.02278 -4.735729,-2.09524 -7.041814,-3.27403 -2.349289,-1.22635 -4.6704717,-2.50802 -7.0650138,-3.64568 -2.2052958,-1.1467 -4.3295027,-2.42944 -6.35234021,-3.87657 0,0 -2.34037129,1.49126 -2.34037129,1.49126 z" />
    <path
       style="fill:#000000;stroke-width:0.264583"
       id="path473"
       d="m -101.98915,201.15056 c 2.323173,-0.0306 4.610483,-0.43153 6.872771,-0.92746 2.35431,-0.56879 4.655746,-1.32868 6.947408,-2.10676 2.406364,-0.81305 4.781785,-1.71211 7.144713,-2.64271 1.923807,-0.79922 3.859199,-1.58833 5.707502,-2.55441 1.347393,-0.70426 4.376652,-2.55554 4.9101,-2.87255 1.283295,-0.96767 2.71404,-2.16654 3.096088,-3.81924 0.06283,-0.27178 0.05733,-0.55494 0.086,-0.83241 -0.149508,-2.10497 -1.079206,-2.88688 -2.800829,-3.92284 -2.818098,-1.38751 -5.957773,-1.89648 -9.040016,-2.33158 -3.302502,-0.50453 -6.571914,-0.0337 -9.821619,0.56428 -2.537915,0.47525 -5.026855,1.1653 -7.476087,1.97565 -1.955226,0.67716 -3.894611,1.39787 -5.853351,2.06503 -2.30885,0.67171 -4.15763,1.81911 -6.25302,3.12634 -0.27961,0.17443 -0.52309,0.4058 -0.74726,0.64737 -0.23938,0.25796 -0.4238,0.56195 -0.6357,0.84293 -0.66261,1.02708 -1.24163,2.37099 -0.67817,3.5906 0.43925,0.95077 0.97515,1.22951 1.77596,1.90622 0.56205,0.30494 1.10237,0.65388 1.68614,0.91482 2.74318,1.22617 6.1523,2.00137 9.140324,2.25095 0.755645,0.0631 1.515377,0.0597 2.273065,0.0895 4.757602,-0.0946 7.208519,-1.01364 11.28038,-3.77807 0.415552,-0.28212 0.685086,-0.73468 1.027631,-1.10202 0.283668,-0.42808 0.624721,-0.82325 0.851009,-1.28425 0.634285,-1.29219 0.769956,-2.84799 0.147463,-4.17607 -0.575289,-1.22736 -1.056034,-1.40457 -2.095387,-2.22762 -0.483584,-0.23724 -0.943514,-0.53049 -1.450752,-0.71172 -2.266284,-0.80972 -4.791403,-0.3485 -6.970194,0.51668 -0.502031,0.19935 -0.973601,0.4682 -1.4604,0.7023 -0.263025,0.2001 -6.305799,2.78467 -5.143449,5.07695 0.350364,0.69095 0.900885,0.81337 1.546513,1.1278 2.695038,0.69313 5.229482,0.0605 7.671348,-1.12534 0.05736,7.86331 4.423992,-2.51948 3.071394,-2.71768 -0.477022,-0.0699 -0.942893,0.20173 -1.414341,0.3026 0,0 -1.703191,1.25806 -1.703191,1.25806 v 0 c 0.645461,0.99702 1.283642,-0.1579 2.632143,-0.91394 -0.328236,0.17359 -0.646099,0.3684 -0.984713,0.52077 -1.592016,0.71636 -3.499823,1.0597 -5.244748,0.93365 -0.372626,-0.0269 -0.735467,-0.13185 -1.103198,-0.19778 -0.586851,-0.24645 -1.631731,-0.54784 -1.415876,-1.44895 0.06535,-0.27284 0.225724,-0.51992 0.396865,-0.74223 0.228706,-0.29709 1.163793,-0.8349 0.79049,-0.80013 -0.670486,0.0624 -1.207331,0.59679 -1.810996,0.89518 0.479904,-0.24874 0.943128,-0.53272 1.439709,-0.74623 2.100884,-0.90332 4.633153,-1.47566 6.875282,-0.7717 0.496536,0.1559 0.949225,0.42706 1.423834,0.64059 0.929937,0.70518 1.488768,0.93975 1.994472,2.03135 0.587618,1.26841 0.304279,2.76785 -0.344898,3.94645 -0.244697,0.44425 -0.593582,0.82256 -0.890373,1.23384 -0.374123,0.35092 -1.630706,0.98413 -1.122373,1.05276 0.67287,0.0908 1.305348,-0.49204 1.79551,-0.96188 0.364144,-0.34904 -0.919123,0.42046 -1.397513,0.58038 -1.796976,0.60071 -3.698894,0.79223 -5.580997,0.85869 -0.752451,-0.0213 -1.506598,-0.009 -2.25735,-0.0638 -2.961355,-0.21622 -6.311703,-0.95186 -9.028753,-2.16792 -0.55842,-0.24993 -1.07499,-0.58448 -1.61248,-0.87672 -0.71671,-0.60368 -1.23635,-0.87128 -1.60954,-1.7311 -0.49712,-1.14535 0.17552,-2.37509 0.80501,-3.29271 0.234,-0.26413 0.44498,-0.55062 0.70202,-0.79241 0.58649,-0.55171 3.55708,-2.41723 -1.57297,0.71721 -0.23405,0.143 0.49521,-0.23668 0.74912,-0.3404 0.35853,-0.14645 1.21327,-0.42957 1.56995,-0.55044 1.97467,-0.67329 3.93363,-1.38907 5.895217,-2.09929 2.477302,-0.8483 4.992836,-1.58785 7.562562,-2.10347 3.242206,-0.62457 6.515224,-1.15475 9.822074,-0.69655 3.08506,0.34643 6.214784,0.85695 9.058457,2.15651 1.578055,0.90634 2.550472,1.65361 2.618169,3.59006 -0.03896,0.25285 -0.04613,0.51268 -0.116867,0.75854 -0.456718,1.58725 -1.904444,2.70139 -3.168332,3.62723 0.58462,-0.31914 1.157763,-0.66027 1.753859,-0.95742 0.389184,-0.19401 -0.749295,0.44202 -1.132461,0.64765 -1.839781,0.98737 -3.775353,1.78477 -5.70093,2.58501 -2.357834,0.93092 -4.72794,1.83034 -7.127811,2.64806 -2.308209,0.79749 -4.62529,1.57625 -6.992393,2.18338 -2.308121,0.55022 -4.635979,0.95391 -7.007542,1.09964 0,0 -2.353672,1.72276 -2.353672,1.72276 z" />
    <path
       style="fill:#000000;stroke-width:0.264583"
       id="path475"
       d="m -42.158919,201.9516 c 1.467739,0.90333 2.88984,1.88057 4.378401,2.74952 0.340934,0.26563 0.789432,0.33956 1.155335,0.55337 0.0932,0.0545 0.167389,0.27107 0.251751,0.20372 0.594215,-0.47439 1.133496,-1.01376 1.700242,-1.52064 -2.649779,-1.27213 -5.303973,-2.53389 -8.025712,-3.64543 -3.62997,-1.42772 -7.281789,-2.8009 -10.978531,-4.0461 -2.966606,-1.02076 -5.989169,-1.8716 -9.063519,-2.49631 -1.95549,-0.35375 -3.930822,-0.58292 -5.910789,-0.74278 -1.5303,-0.14869 -3.040957,-0.0598 -4.538424,0.27179 -1.696199,0.44495 -2.880982,1.24743 -4.480595,2.29819 -0.249943,0.16418 -0.43762,0.79396 -0.430564,1.05177 0.0067,0.24658 0.110726,0.48075 0.16609,0.72113 0.156675,0.25765 0.27637,0.54181 0.470027,0.77296 1.386064,1.65444 3.868856,2.39838 5.862542,2.97359 2.403528,0.66958 4.838943,0.57888 7.262365,0.11656 1.933683,-0.49506 3.423174,-1.56877 5.154964,-2.65374 0.478116,-0.29954 0.702228,-0.63016 0.801265,-1.15633 -0.06062,-0.13969 -0.09045,-0.29729 -0.181864,-0.41908 -0.835237,-1.11272 -3.509942,-1.20883 -4.717646,-1.27398 -2.299745,0.36505 -1.131279,0.0785 -3.493949,0.90503 0,0 -1.098884,0.82935 -1.098884,0.82935 v 0 c 1.104583,0.26914 0.467021,0.17094 1.926415,0.1846 0.951977,0.0343 4.046578,0.10325 4.54763,1.20649 -0.14182,0.32006 -0.09383,0.28647 -0.403133,0.56765 -0.140105,0.12736 -0.613719,0.438 -0.443719,0.35463 0.755877,-0.37067 1.47878,-0.80531 2.210763,-1.22118 0.250253,-0.14218 -0.499404,0.28966 -0.765268,0.39993 -0.302143,0.12532 -0.621932,0.20293 -0.932897,0.3044 -2.44603,0.52291 -4.718939,0.63012 -7.169761,0.007 -1.916237,-0.51911 -4.36232,-1.19066 -5.682191,-2.79132 -0.166712,-0.20217 -0.264552,-0.45241 -0.39683,-0.67863 -0.06653,-0.50164 -0.178319,-0.62125 0.104626,-1.06124 0.09062,-0.14091 0.502695,-0.43185 0.351867,-0.35891 -4.937384,2.3877 -2.455418,1.3349 -1.33681,0.96184 1.480926,-0.37385 2.973602,-0.51586 4.500967,-0.36943 1.996395,0.11209 3.984445,0.33395 5.957581,0.66043 3.111897,0.56716 6.171443,1.37402 9.174162,2.37036 3.741727,1.21759 7.441589,2.55719 11.132556,3.91991 2.788856,1.09985 5.550148,2.25925 8.304524,3.44128 4.059309,-2.08756 2.939309,-1.05231 1.861908,-1.23041 -0.443865,-0.0734 -0.851094,-0.31724 -1.278327,-0.44116 -1.625147,-0.70913 -3.237619,-1.47246 -4.666684,-2.536 0,0 -1.279884,0.81725 -1.279884,0.81725 z" />
    <path
       style="fill:#000000;stroke-width:0.264583"
       id="path477"
       d="m -134.32275,201.25266 c 2.70896,-0.094 5.39715,-0.48961 8.05848,-0.98415 2.96512,-0.6414 5.92627,-1.30347 8.8834,-1.98118 3.32642,-0.74398 6.14242,-1.88244 8.81161,-4.18519 0.27542,-0.30961 0.68922,-0.70478 0.83222,-1.1196 0.20564,-0.59652 0.11011,-1.43511 -0.21554,-1.97062 -0.14339,-0.2358 -0.35267,-0.42458 -0.52901,-0.63687 -2.08648,-1.51046 -4.7319,-1.86631 -7.24582,-1.92167 -1.41295,0.0611 -2.80867,0.31971 -4.03169,1.06162 -3.54215,2.14873 -2.5939,1.16273 -3.96897,2.76928 -0.74574,1.39486 -0.38971,2.6137 1.17119,3.18083 0.33058,0.12012 0.68626,0.15456 1.0294,0.23185 0.35293,0.0114 0.70669,0.0611 1.0588,0.0344 0.50621,-0.0385 1.37505,-0.25752 1.83872,-0.50497 1.74603,-0.9318 3.01787,-1.50242 4.31607,-2.72448 0.63636,-0.6473 -0.17724,-1.28029 -0.9027,-1.2288 -0.51807,0.0368 -1.01379,0.22631 -1.52069,0.33947 0,0 -0.87419,0.60456 -0.87419,0.60456 v 0 c -0.009,0.23113 -0.12151,0.48207 -0.0275,0.6934 0.20938,0.47044 1.12965,0.0542 0.35646,0.80302 -0.77091,0.66402 -2.75378,2.04941 1.17139,-0.47035 0.25129,-0.16133 -0.53723,0.26444 -0.81942,0.36213 -0.96474,0.33397 -0.94946,0.25068 -1.97038,0.26158 -0.65336,-0.11383 -1.1736,-0.12011 -1.73072,-0.51571 -0.86061,-0.61111 -0.59599,-1.59046 -0.10117,-2.32441 1.1543,-1.19478 0.54099,-0.4416 -1.54253,0.52115 -0.29223,0.13504 0.53744,-0.35815 0.82715,-0.49851 0.98846,-0.4789 2.08292,-0.64855 3.16496,-0.7427 2.44465,-0.01 5.01964,0.27895 7.0803,1.70466 0.15705,0.1824 0.34494,0.34226 0.47116,0.54722 0.62403,1.01339 -0.014,2.04034 -0.77399,2.72885 -1.13717,0.91484 -1.09455,0.81482 1.20014,-0.47393 0.32242,-0.18108 -0.64462,0.36527 -0.98362,0.51298 -1.15727,0.50423 -2.41174,0.74213 -3.6208,1.07905 -3.00244,0.68998 -6.00009,1.39888 -9.00311,2.08582 -2.68546,0.52946 -5.39352,0.95686 -8.12978,1.11041 0,0 -2.27987,1.65089 -2.27987,1.65089 z" />
    <path
       style="fill:#000000;stroke-width:0.264583"
       id="path479"
       d="m 220.16337,135.3963 c -2.06268,-0.86827 -3.67706,-2.52466 -5.17373,-4.13981 -1.91393,-2.0453 -3.18592,-4.49701 -4.17756,-7.08971 -0.81677,-2.24282 -1.39777,-4.54797 -1.65211,-6.92007 -0.12958,-1.85323 0.31527,-3.49989 1.14869,-5.13304 0.48881,-0.86431 1.07471,-1.66604 1.90119,-2.23608 0.2219,-0.15304 0.91937,-0.56295 0.6942,-0.41477 -0.58528,0.38514 -1.18325,0.75061 -1.77488,1.12592 2.23669,-0.91214 3.78573,-0.438 5.91652,0.47713 1.57271,0.86457 3.21822,1.92948 4.1871,3.49405 0.16982,0.27422 0.2882,0.57713 0.43229,0.86569 0.23075,0.7744 0.47189,1.31617 0.38719,2.1532 -0.18912,1.86905 -1.50719,3.35068 -2.73863,4.63651 -0.38539,0.28091 -1.60084,1.01506 -1.15616,0.84274 0.5151,-0.19961 1.57052,-0.41087 1.37373,-0.92705 -0.19199,-0.50361 -1.01347,0.38319 -1.54318,0.48257 -1.06892,0.20054 -2.20241,0.14778 -3.25373,-0.12171 -0.50957,-0.13061 -0.98488,-0.36999 -1.47732,-0.55499 -0.42614,-0.26879 -0.88686,-0.48932 -1.27843,-0.80636 -1.64495,-1.33185 -2.38026,-3.5736 -2.32629,-5.6448 0.0134,-0.51544 0.14437,-1.02108 0.21655,-1.53162 0.36779,-1.03735 0.44349,-1.54621 1.1318,-2.40457 0.2364,-0.2948 1.16876,-0.93344 0.82414,-0.77843 -4.18212,1.88108 -1.46908,1.0577 -0.74863,1.09015 0.35459,0.016 0.69584,0.14057 1.04376,0.21086 0.3248,0.17595 0.67201,0.31568 0.97441,0.52785 0.95226,0.6681 1.98645,1.92325 1.57363,3.18224 -0.0902,0.27524 -0.29216,0.50025 -0.43824,0.75038 -0.72219,0.71447 -0.47336,0.41208 -0.81319,0.8479 0,0 1.81809,-0.70575 1.81809,-0.70575 v 0 c 1.62025,-0.90097 1.0057,-0.35468 1.96843,-1.48668 0.12643,-0.29225 0.31434,-0.56502 0.37929,-0.87675 0.38661,-1.85539 -1.46737,-3.25723 -2.8336,-4.05368 -0.35764,-0.10373 -0.70388,-0.26145 -1.07293,-0.31122 -1.98118,-0.26715 -4.49689,1.32238 -5.6305,2.91796 -0.65173,0.91733 -0.71199,1.42929 -1.04928,2.5078 -0.0609,0.53056 -0.17796,1.05765 -0.1827,1.59167 -0.0192,2.16621 0.74884,4.49684 2.45122,5.9116 0.40312,0.33501 0.87928,0.57079 1.31892,0.85618 1.33485,0.53722 1.69269,0.79959 3.15904,0.90842 3.24441,0.24081 6.1537,-1.74138 8.58192,-3.68524 1.24188,-1.38477 2.48383,-2.92346 2.6102,-4.87519 0.0596,-0.91988 -0.18601,-1.42309 -0.45659,-2.26797 -0.17156,-0.29376 -0.31986,-0.60241 -0.51469,-0.88129 -1.0939,-1.56581 -2.73203,-2.68966 -4.4133,-3.53217 -2.18867,-0.95335 -3.71326,-1.53004 -6.05665,-0.68078 -2.84152,1.53454 -4.47273,1.92433 -5.93198,4.64109 -0.79172,1.66238 -1.22673,3.42262 -1.05695,5.27935 0.28645,2.38909 0.88461,4.70895 1.73412,6.96257 1.04058,2.64454 2.337,5.05479 4.29237,7.15046 1.53291,1.64438 3.20365,3.24892 5.22315,4.28023 0,0 2.4093,-1.63479 2.4093,-1.63479 z" />
    <path
       style="fill:#000000;stroke-width:0.264583"
       id="path481"
       d="m 215.00624,115.91863 c -0.2067,1.94782 -0.99158,2.6894 -2.61557,3.65482 0.53622,-0.3323 1.11228,-0.60758 1.60865,-0.99689 0.20197,-0.15842 -0.46948,0.20918 -0.71191,0.29355 -0.45166,0.15719 -1.07705,0.33595 -1.51065,0.006 -0.13297,-0.1013 -0.21275,-0.25789 -0.31913,-0.38683 -0.26034,-0.6526 -0.3992,-1.34897 0.0134,-1.98489 0.12942,-0.19945 0.7163,-0.61261 0.50481,-0.50396 -2.57273,1.32174 -2.05609,1.13823 -0.80928,1.02903 1.03806,0.1765 2.13341,0.62424 2.47796,1.72011 0.0991,0.31516 0.0869,0.65501 0.13057,0.98248 0,0 1.25231,-0.56053 1.25231,-0.56053 v 0 c 0.47623,-0.54483 1.10945,-0.98164 1.05287,-1.80482 -0.0728,-1.05926 -1.83477,-1.78117 -2.66911,-1.97898 -0.30454,-0.006 -0.63318,-0.13806 -0.91361,-0.0192 -1.28641,0.54549 -3.59523,1.3071 -3.78862,3.0956 -0.0659,0.60964 0.10274,0.93907 0.28217,1.4972 0.30466,0.39942 0.36035,0.61268 0.8602,0.76315 1.5021,0.45216 4.44358,-1.96633 5.147,-2.16301 1.55674,-1.03598 2.32338,-1.89078 2.3602,-3.83297 0,0 -2.35231,1.19048 -2.35231,1.19048 z" />
    <path
       style="fill:#000000;stroke-width:0.264583"
       id="path483"
       d="m 224.15005,83.007823 c -0.0568,0.245682 -0.12317,0.48935 -0.17043,0.737048 -0.15985,0.837665 -0.0731,0.807431 -0.31224,1.645023 -0.26244,0.919363 -0.69582,1.716288 -1.17529,2.535478 -1.07515,1.667954 -2.4761,3.089463 -3.85924,4.500224 -1.33323,1.323154 -2.63813,2.649619 -3.59949,4.272171 -0.64869,1.456685 -1.16424,3.064137 -0.6226,4.647513 0.11682,0.34149 0.31093,0.65145 0.46639,0.97717 0.2381,0.31577 0.44756,0.65534 0.71431,0.94732 1.09313,1.1965 2.67092,2.29856 4.31511,2.50094 0.43119,0.0531 0.8689,-0.002 1.30335,-0.003 0.40928,-0.0888 0.83079,-0.13314 1.22784,-0.26635 1.30113,-0.43652 4.16061,-2.54105 4.43148,-2.77994 0.63706,-0.56186 0.52588,-2.6728 0.48191,-3.416304 -0.27999,-1.431584 -0.80073,-2.993517 -2.11892,-3.800925 -0.1993,-0.122073 -0.4232,-0.198466 -0.6348,-0.297698 -0.81704,-0.25767 -1.67046,-0.290732 -2.42708,0.168611 -3.25488,1.976051 -2.5225,0.958966 -3.50887,2.61126 -0.15407,0.620614 -0.36663,2.040976 0.133,2.574406 0.24017,0.25642 0.63703,0.29656 0.95554,0.44484 0,0 1.47524,-0.83942 1.47524,-0.83942 v 0 c 0.073,-0.346229 0.2076,-0.685028 0.21914,-1.038697 0.009,-0.284355 -0.13388,-0.555302 -0.15788,-0.838798 -0.0672,-0.794065 0.0161,-0.830834 0.23752,-1.556141 0.90794,-1.237065 0.50089,-0.516242 -1.78745,0.601461 -0.1848,0.09026 0.33376,-0.245734 0.52151,-0.329679 0.55819,-0.249576 1.17004,-0.201247 1.74702,-0.07094 1.88731,0.737571 2.30905,1.781728 2.78426,3.694924 0.0469,0.90936 0.15927,1.35459 -0.15855,2.24192 -0.12725,0.35527 -0.91388,0.92904 -0.54212,0.99388 0.64054,0.11172 1.16416,-0.59817 1.78948,-0.77631 0.74747,-0.21294 -2.85458,1.47054 -2.16878,0.856 -0.4105,0.0166 -0.82229,0.0864 -1.2315,0.0499 -1.93913,-0.17299 -3.73634,-1.7259 -4.81623,-3.24604 -0.13718,-0.30639 -0.31041,-0.59906 -0.41153,-0.919162 -0.48048,-1.520992 0.0842,-3.075165 0.74396,-4.439618 0.99126,-1.555139 2.28111,-2.851939 3.55434,-4.177692 1.32775,-1.402797 2.7098,-2.790444 3.64738,-4.498573 0.73151,-1.464087 1.47031,-3.13269 1.05042,-4.794059 0,0 -2.0962,1.088874 -2.0962,1.088874 z" />
    <path
       style="fill:#000000;stroke-width:0.264583"
       id="path489"
       d="m 183.76147,134.29448 c 3.24846,-0.26249 6.49906,-0.48015 9.74184,-0.80984 2.7574,-0.2995 5.51685,-0.59367 8.23471,-1.15645 2.94764,-0.66673 5.92074,-1.98602 7.98932,-4.24163 0.79053,-1.07277 1.06443,-2.37416 0.9701,-3.68432 -0.61219,-1.50046 -1.97088,-2.69616 -3.41153,-3.40687 -0.30491,-0.15043 -0.63075,-0.25407 -0.94613,-0.38111 -0.72118,-0.17382 -1.19243,-0.33741 -1.94321,-0.32125 -2.55748,0.055 -4.98685,2.09753 -6.95333,3.32561 -0.81512,0.96802 -1.40711,2.26851 -0.59653,3.4557 0.55274,0.80955 0.97734,0.87182 1.83,1.28528 1.41146,0.31947 2.86605,0.32583 4.13031,-0.46519 3.27922,-2.05173 2.76394,-0.90524 3.34772,-2.66883 -0.0435,-0.19965 -0.0286,-0.42187 -0.13056,-0.59894 -0.44079,-0.76539 -1.96727,-1.49181 -2.84032,-1.38086 -0.32045,0.0407 -0.61515,0.19746 -0.92272,0.2962 0,0 -1.58103,1.15533 -1.58103,1.15533 v 0 c 0.0188,0.0898 -0.0216,0.22112 0.0565,0.26928 0.17444,0.10761 0.4027,0.0792 0.59975,0.13557 0.5961,0.17057 1.54175,0.43681 1.90174,1.01073 0.0774,0.12333 0.0437,0.28785 0.0656,0.43177 -0.58921,1.21847 -0.30313,0.383 1.91273,-0.59167 0.26377,-0.11602 -0.47644,0.33133 -0.74149,0.44438 -0.98808,0.42143 -2.0509,0.3633 -3.07941,0.16164 -0.74784,-0.32862 -1.18747,-0.38522 -1.66073,-1.09232 -0.72629,-1.08517 0.0142,-2.27624 0.7716,-3.06851 -0.65344,0.33072 -1.29284,0.69077 -1.96032,0.99215 -0.35504,0.16031 0.6686,-0.40266 1.02125,-0.56814 1.34567,-0.63149 2.69572,-0.82126 4.14092,-0.43752 0.31102,0.10951 0.63246,0.19301 0.93304,0.32855 1.13743,0.51288 2.33846,1.42671 2.9891,2.50729 0.11742,0.19501 0.17303,0.42109 0.25954,0.63164 0.045,1.25102 -0.24561,2.46423 -1.06251,3.44311 -0.18393,0.18392 -0.35412,0.38268 -0.55179,0.55174 -0.22766,0.19473 -0.99521,0.65705 -0.72083,0.53677 0.62523,-0.27409 1.22076,-0.61966 1.78535,-1.00343 0.30153,-0.20496 -0.65152,0.32987 -0.99081,0.46336 -0.6985,0.27481 -1.43296,0.43721 -2.15746,0.6219 -2.73582,0.59704 -5.51566,0.92792 -8.2964,1.24259 -3.27684,0.35341 -6.56072,0.60074 -9.84388,0.88148 0,0 -2.29011,1.70481 -2.29011,1.70481 z" />
    <path
       style="fill:#000000;stroke-width:0.264583"
       id="path491"
       d="m 223.3585,86.11064 c 0.47944,-0.689497 1.08837,-1.320208 1.44539,-2.090346 0.11165,-0.24084 0.15361,-0.508214 0.23042,-0.76232 0,0 -0.90992,0.402619 -0.90992,0.402619 v 0 c -0.86207,1.033729 -1.64103,2.121246 -2.47187,3.179482 0,0 1.70598,-0.729435 1.70598,-0.729435 z" />
    <path
       style="fill:#000000;stroke-width:0.264583"
       id="path493"
       d="m 223.70143,85.437585 c 0.0939,-0.232183 0.18784,-0.464365 0.28176,-0.696548 0,0 -1.15364,0.489964 -1.15364,0.489964 v 0 c -0.40274,0.362095 -0.80549,0.724193 -1.20823,1.086292 0,0 2.08011,-0.879708 2.08011,-0.879708 z" />
    <path
       style="fill:#ffffff;stroke-width:0.264583"
       id="path495"
       d="m 223.3594,84.304922 c 0.47599,-1.152972 0.28848,-0.533556 0.5293,-1.867985 0,0 -1.14264,0.521706 -1.14264,0.521706 v 0 c -1.09751,1.643298 -0.66878,0.882181 -1.35671,2.242155 0,0 1.97005,-0.895876 1.97005,-0.895876 z" />
    <path
       style="fill:#ffffff;stroke-width:0.264583"
       id="path530"
       d="m -31.437146,205.03538 c 3.395914,0.30937 6.792532,0.60143 10.199098,0.75995 5.112114,0.21289 10.173691,-0.63475 15.1515651,-1.70463 4.6295034,-1.05001 8.1535951,-2.88307 12.0311031,-5.66913 0.5185251,-0.37257 0.9262903,-0.87903 1.3894358,-1.31854 1.7957826,-1.95889 3.097318,-4.283 3.339129,-6.97457 0.175354,-1.95186 -0.07904,-2.98505 -0.344349,-4.90897 -0.5735973,-1.89896 -0.7693233,-2.9491 -1.774227,-4.68068 -1.399277,-2.41113 -3.4819378,-4.50375 -5.639985,-6.23855 -0.7276954,-0.58497 -1.515352,-1.09117 -2.27302808,-1.63675 -2.95664762,-1.89663 -6.21466832,-3.37998 -9.70445182,-3.94126 -0.5068427,-0.0815 -1.0205891,-0.11198 -1.5308831,-0.16797 -3.485699,-0.15526 -6.754856,1.1327 -9.897178,2.489 -3.141303,1.66755 -6.657251,3.17272 -8.799839,6.14968 -0.982313,1.36485 -1.228079,2.19049 -1.877263,3.72828 -0.154096,0.70152 -0.38435,1.39056 -0.462286,2.10457 -0.240932,2.20733 0.239012,4.8272 1.244531,6.80871 1.03971,2.04889 1.729579,2.44173 3.381963,4.0512 0.795872,0.57212 1.545164,1.21535 2.387618,1.71636 3.11161,1.85047 6.530972,2.79216 10.133025,3.00195 2.975038,0.17327 4.5908286,-0.10335 7.5011431,-0.40062 1.7965517,-0.37134 3.7696385,-0.63401 5.4414459,-1.48364 1.64045342,-0.8337 4.9952568,-1.96711 5.5994812,-4.38123 0.3715531,-1.4845 -0.2653413,-2.97977 -0.6555279,-4.34939 -0.3674264,-0.70613 -0.6590157,-1.45724 -1.1022791,-2.11841 -1.52430778,-2.27365 -3.7615294,-3.84045 -6.3568536,-4.67099 -2.056451,-0.65809 -3.2043889,-0.60219 -5.3005662,-0.72736 -0.7501474,0.14492 -1.5588904,0.10999 -2.2504434,0.43476 -2.008498,0.94325 -4.852832,1.89063 -5.276607,4.44284 -0.103569,0.62375 -0.04497,1.29678 0.177827,1.88852 0.542118,1.43983 1.772101,2.28496 2.858293,3.24753 1.57174,0.8363 2.14355,1.31048 3.9088826,1.60477 2.8124017,0.46885 4.9985881,-1.11215 7.2573265,-2.66084 0.2906037,-0.19926 0.4337372,-0.55541 0.6506059,-0.83312 0.051823,-0.28905 0.1916483,-0.57574 0.1554681,-0.86717 -0.1623722,-1.30791 -1.7506063,-1.74664 -2.8342746,-1.65631 -0.3005978,0.0251 -0.5907,0.12256 -0.8860501,0.18384 -1.0295141,0.61353 -2.0590282,1.22705 -3.0885423,1.84058 0,0 2.1322818,-0.82236 2.1322818,-0.82236 v 0 c -0.567654,0.33709 -1.1353078,0.67417 -1.7029618,1.01126 0.9653585,-0.26627 2.2973578,-0.56666 3.0864627,0.31281 0.1437841,0.16024 0.2647987,0.36837 0.2773564,0.58331 0.014414,0.24673 -0.1343906,0.47569 -0.2015861,0.71354 -0.2210181,0.2436 -0.987893,0.78249 -0.6630543,0.7308 0.6483803,-0.10316 1.356764,-0.37803 1.750023,-0.90375 0.3047132,-0.40736 -0.9413166,0.41522 -1.4438265,0.49442 -2.027995,0.3196 -3.8983472,-0.46735 -5.6022273,-1.46974 -1.412873,-1.23391 -3.278039,-2.57651 -2.796941,-4.77398 0.124364,-0.56805 1.007148,-0.9905 0.818515,-1.54055 -0.137847,-0.40197 -1.614459,0.47974 -1.190129,0.45692 0.755917,-0.0406 1.475054,-0.34127 2.212581,-0.51191 2.0699335,0.0807 3.226232,8e-4 5.2626383,0.61315 2.5417989,0.76432 4.7461601,2.26969 6.23077173,4.48701 0.43037309,0.64277 0.7075399,1.37583 1.06130986,2.06374 0.38793403,1.45864 0.93815521,2.61343 0.44337784,4.14978 -0.18544241,0.57583 -1.03584962,0.90677 -1.00534465,1.51095 0.01966345,0.38945 1.42859052,-0.61872 1.05624122,-0.50289 -6.1799806,1.92244 1.7703632,-0.008 -5.4756717,1.60977 -2.9268597,0.33162 -4.4770547,0.62367 -7.4712186,0.46928 -4.710564,-0.24289 -8.621417,-1.69243 -12.313927,-4.60456 -0.645645,-0.63257 -1.360419,-1.20155 -1.936935,-1.89771 -1.94515,-2.34882 -2.85429,-5.68357 -2.462476,-8.7009 0.09065,-0.69806 0.330176,-1.36857 0.495263,-2.05285 0.688094,-1.55287 0.897175,-2.27126 1.932342,-3.63333 0.38093,-0.50123 0.822553,-0.95637 1.281067,-1.38777 0.445597,-0.41924 1.297584,-0.55909 1.424348,-1.15763 0.102299,-0.48303 -1.743733,0.92516 -1.321063,0.66995 0.545206,-0.3292 1.1263,-0.59493 1.68945,-0.89239 3.103276,-1.37781 6.33505,-2.67792 9.789401,-2.62165 0.509379,0.0431 1.021764,0.0591 1.528136,0.12916 3.4928482,0.48321 6.7779998,1.91075 9.7663325,3.7356 0.7597217,0.53101 1.54970706,1.02116 2.27916517,1.59303 2.15486223,1.68935 4.19168083,3.74289 5.57531433,6.12599 1.0044464,1.73 1.1743253,2.69096 1.7486238,4.58825 0.2580521,1.92883 0.5016238,2.86437 0.2938335,4.81708 -0.2785673,2.61784 -1.5558621,4.87751 -3.3329641,6.76385 -0.4607584,0.42571 -1.1390482,0.69888 -1.3822749,1.27713 -0.1344586,0.31966 1.2472789,-0.56099 0.9854147,-0.33364 -0.490801,0.42612 -1.1184768,0.66482 -1.700384,0.95437 -1.96603349,0.9783 -4.0703187,1.6495 -6.1969059,2.1738 -4.9785396,1.1121 -10.0366331,1.9661 -15.1590501,1.80187 -3.424914,-0.11281 -6.840066,-0.3552 -10.248618,-0.71015 0,0 -2.265998,1.61853 -2.265998,1.61853 z" />
    <path
       style="fill:#ffffff;stroke-width:0.264583"
       id="path532"
       d="m 63.514041,210.98458 c -0.680657,0.12027 -1.356458,0.27232 -2.041972,0.36079 -5.907061,0.76235 -11.917559,0.50063 -17.842283,0.17222 -4.188913,-0.35276 -8.410059,-0.68626 -12.504563,-1.69379 -2.343052,-0.57656 -3.382949,-0.97134 -5.654429,-1.72635 -2.892817,-1.04059 -5.78138,-2.17215 -8.391526,-3.82041 -1.279517,-0.808 -1.448899,-1.01047 -2.560792,-1.94492 -0.963542,-1.04254 -2.814469,-2.90136 -2.237218,-4.52562 0.120557,-0.33922 0.364424,-0.62098 0.546635,-0.93147 0.415158,-0.34035 0.897344,-0.6124 1.245474,-1.02106 0.230177,-0.27019 -1.231661,0.66108 -0.882846,0.59538 9.132848,-1.72008 -5.0366414,-0.15255 5.327435,-1.45517 2.661784,-0.33455 3.877345,-0.17675 6.558489,-0.0744 3.043416,0.30263 6.040499,0.94467 8.886548,2.07748 1.45764,0.58019 2.586638,1.14028 3.811614,2.10951 0.473797,0.37488 0.876136,0.83215 1.314204,1.24822 0.995114,1.29548 2.350892,2.82574 2.176656,4.60226 -0.09934,1.01289 -0.414007,1.28626 -0.944219,2.13416 0.418015,-0.48629 -2.660465,2.58887 -2.369079,1.66807 0.182372,-0.5763 1.674005,-0.5518 1.435984,-1.10744 -0.234998,-0.54857 -1.158852,0.30113 -1.751571,0.37074 -1.666388,0.19567 -2.237491,0.0251 -3.893436,-0.17639 -1.701107,-0.45983 -4.881536,-0.82845 -5.986537,-2.43681 -0.12205,-0.17765 -0.153419,-0.40285 -0.230127,-0.60427 0.101923,-0.17675 0.160216,-0.38727 0.305766,-0.53026 0.209786,-0.20608 0.984107,-0.64402 0.733309,-0.49047 -0.666099,0.40782 -1.419199,0.70949 -1.979589,1.25352 -0.261614,0.25398 0.685456,-0.25324 1.039408,-0.34078 0.962736,-0.23813 1.03374,-0.1725 1.983965,-0.1386 0.423672,-0.0886 0.847344,-0.17725 1.271016,-0.26588 0,0 1.266081,-0.80746 1.266081,-0.80746 v 0 c 0.09464,-0.31661 0.189275,-0.63321 0.283911,-0.94981 -0.332732,-0.0288 -0.664321,-0.0942 -0.998196,-0.0862 -2.264272,0.0543 -4.258032,1.50069 -6.078243,2.62804 -0.27011,0.16729 -0.517061,0.39445 -0.6817,0.66618 -0.135637,0.22387 -0.12293,0.50887 -0.184395,0.7633 0.104447,0.23653 0.16542,0.49753 0.313342,0.7096 1.213856,1.74032 4.327295,2.06706 6.187716,2.57639 1.658741,0.23536 2.262237,0.41692 3.937838,0.27845 2.608662,-0.21557 3.47558,-1.08526 6.247204,-2.55391 0.461812,-0.2447 0.917636,-0.50961 1.328838,-0.8322 0.383583,-0.30092 0.694161,-0.68475 1.041242,-1.02713 0.516278,-0.94987 0.818716,-1.24121 0.87217,-2.34222 0.09081,-1.87055 -1.271657,-3.43817 -2.354784,-4.79468 -1.283266,-1.19904 -1.523955,-1.56868 -3.131889,-2.43915 -3.449362,-1.86735 -7.421076,-2.53409 -11.256383,-3.03262 -2.730872,-0.11938 -3.896709,-0.27758 -6.610347,0.0233 -4.163432,0.46166 -8.258563,2.18353 -11.2583632,5.16247 -0.1686129,0.35501 -0.4051892,0.68513 -0.5058386,1.06504 -0.4708848,1.77742 1.3710968,3.62711 2.4424648,4.76925 1.137026,0.93535 1.333893,1.15602 2.633308,1.96481 2.65602,1.65318 5.588512,2.76924 8.525535,3.80831 2.057822,0.67889 3.577512,1.22327 5.690872,1.74373 4.169108,1.02674 8.473085,1.24665 12.736152,1.58521 6.628019,0.36182 13.290172,0.55515 19.889145,-0.34333 0,0 2.298004,-1.84357 2.298004,-1.84357 z" />
    <path
       style="fill:#ffffff;stroke-width:0.264583"
       id="path534"
       d="m -73.777958,180.46081 c 2.883413,0.51181 5.677725,1.42911 8.500459,2.19605 4.503436,1.23868 8.97755,2.58003 13.467784,3.86518 3.363028,1.04667 6.821013,1.68164 10.334167,1.876 1.876287,-0.004 3.767259,-0.19507 5.489868,-0.98984 1.701044,-0.78482 3.210698,-1.93158 4.797679,-2.92706 0.236863,-0.28245 0.512157,-0.53669 0.710589,-0.84735 0.619842,-0.97038 1.116946,-2.36424 0.934437,-3.53216 -0.162475,-1.03973 -0.621816,-1.57458 -1.162323,-2.4384 -0.356049,-0.35339 -0.675962,-0.74737 -1.068149,-1.06017 -2.256642,-1.79983 -5.159206,-2.55557 -7.925985,-3.10763 -2.09868,-0.3348 -4.233871,-0.36267 -6.260412,0.35961 -1.754804,0.62543 -4.005318,2.29447 -5.220145,3.05882 -0.235442,0.30951 -0.528907,0.58248 -0.706329,0.92853 -0.77847,1.51838 0.245338,3.10028 1.496867,3.97052 0.378913,0.26348 0.81275,0.43751 1.219124,0.65627 2.733984,0.93715 5.22061,1.17026 8.012027,0.40848 0.719466,-0.36531 4.55422,-1.41946 3.80219,-3.43634 -0.09583,-0.257 -0.243314,-0.51048 -0.453679,-0.68649 -0.637257,-0.53318 -1.129485,-0.40967 -1.902579,-0.43581 -1.902756,0.65955 -0.92203,0.22114 -2.905495,1.39437 0,0 -0.459454,0.36428 -0.459454,0.36428 v 0 c 0.198165,0.36112 0.03091,0.18534 0.70912,0.16443 0.722831,-0.003 1.748922,-0.16209 2.051481,0.7289 0.06057,0.17836 0.05772,0.38669 -0.0027,0.56508 -0.06661,0.19658 -0.554445,0.58202 -0.360722,0.50752 0.766569,-0.29476 1.435732,-0.79795 2.1536,-1.19693 -0.316937,0.10243 -0.626732,0.23039 -0.95081,0.3073 -2.270334,0.53884 -4.651171,0.13852 -6.836767,-0.55593 -0.387268,-0.198 -0.799941,-0.35268 -1.161801,-0.59401 -1.169435,-0.77991 -2.054336,-2.16107 -1.236477,-3.51674 0.191177,-0.31689 0.479869,-0.56356 0.719804,-0.84535 -0.636273,0.30532 -1.2622,0.63322 -1.908823,0.91596 -0.426945,0.18669 0.816499,-0.45453 1.24918,-0.62752 1.990225,-0.79567 4.117837,-0.83377 6.211517,-0.5213 2.731592,0.49897 5.575937,1.19521 7.814841,2.94592 0.374925,0.29317 0.684245,0.66173 1.026367,0.99259 0.499641,0.80185 0.933415,1.29596 1.056412,2.26473 0.199734,1.57318 -0.752123,3.07759 -1.804098,4.12914 0.677891,-0.34471 1.332015,-0.74081 2.033672,-1.03414 0.364098,-0.15222 -0.663893,0.42941 -1.015548,0.60851 -1.683096,0.85719 -3.554248,1.08967 -5.420762,1.12217 -3.522932,-0.14965 -6.999896,-0.74723 -10.383059,-1.75126 -4.555736,-1.24766 -9.086178,-2.59032 -13.67028,-3.73164 -2.892661,-0.74383 -5.762263,-1.64615 -8.719198,-2.09766 0,0 -2.255565,1.60337 -2.255565,1.60337 z" />
    <path
       style="fill:#ffffff;stroke-width:0.264583"
       id="path536"
       d="m -31.157338,201.59715 c 1.076849,-1.29137 2.325118,-2.75372 2.521889,-4.49953 0.05264,-0.46703 -0.01984,-0.93976 -0.02975,-1.40964 -0.397486,-2.36309 -1.375074,-4.69825 -3.123805,-6.39316 -0.327401,-0.31732 -0.708052,-0.57463 -1.062078,-0.86195 -0.720378,-0.42006 -1.508511,-0.9559 -2.341059,-1.15294 -0.814742,-0.19282 -1.625569,-0.15616 -2.374369,0.25458 -3.744378,2.05391 -3.009357,1.17892 -4.289544,3.31808 -0.03887,0.40791 -0.141856,0.81475 -0.116625,1.22373 0.09943,1.61176 1.132771,3.11916 2.344912,4.11328 0.274738,0.22532 0.582753,0.4067 0.874128,0.61004 0.343839,0.11324 0.673634,0.28526 1.03152,0.3397 0.997535,0.15176 2.098125,-0.1547 2.93224,-0.69934 3.28999,-2.14821 2.932914,-0.93533 3.239277,-2.8078 -0.07395,-0.19993 -0.09469,-0.4287 -0.221853,-0.59979 -1.036651,-1.39474 -3.226742,0.81431 -3.796024,1.16086 0,0 2.012479,-0.80413 2.012479,-0.80413 v 0 c -4.09489,2.22178 -1.71123,0.41309 -0.996778,1.18412 0.103819,0.11204 0.101801,0.28803 0.152699,0.43204 -0.403958,1.32488 -0.255392,0.39215 2.061085,-0.5432 0.276752,-0.11175 -0.495096,0.33879 -0.766805,0.46229 -0.963305,0.43786 -1.904198,0.50411 -2.893179,0.11467 -0.284406,-0.18739 -0.586025,-0.35097 -0.853217,-0.56218 -1.140339,-0.90144 -2.159662,-2.33778 -2.193523,-3.84684 -0.0082,-0.36693 0.112815,-0.72532 0.169225,-1.08798 0.907579,-1.32504 1.122857,-1.31238 -1.202645,-0.0448 -0.343832,0.18741 0.698132,-0.38034 1.082058,-0.45745 1.304616,-0.26203 2.481136,0.43678 3.581019,1.00835 0.354965,0.26645 0.733502,0.5041 1.064895,0.79936 0.781585,0.69635 1.141135,1.22902 1.697516,2.11273 0.778767,1.23693 1.379247,2.50566 1.545614,3.97762 0.0055,0.44306 0.07085,0.88944 0.01654,1.3292 -0.206989,1.67568 -1.404803,3.08826 -2.447409,4.32544 0,0 2.381578,-0.99537 2.381578,-0.99537 z" />
    <path
       style="fill:#ffffff;stroke-width:0.264583"
       id="path538"
       d="m 0.06906924,211.11411 c 1.96337226,-0.28588 4.11630536,-0.45459 5.89723456,-1.42348 1.1754826,-0.63951 2.3072616,-1.35627 3.4608926,-2.0344 0.7171346,-0.6332 1.5552556,-1.32219 1.4623626,-2.39996 -0.110684,-1.28418 -1.1317591,-2.05396 -2.0334501,-2.79873 -1.6908894,-1.04557 -3.7743013,-1.74724 -5.7638087,-1.14332 -0.3345648,0.10156 -0.6375931,0.28717 -0.9563897,0.43075 -1.0670132,0.74883 -2.25087642,1.35405 -3.2010398,2.2465 -0.2262964,0.21255 -0.1906015,0.60688 -0.1664199,0.9164 0.090202,1.15457 1.08678305,1.79082 2.11326344,2.02459 0.32610716,0.0743 0.66663756,0.0551 0.99995626,0.0827 1.3904945,-0.30076 0.6306065,-0.0265 2.1881492,-1.042 0,0 0.696981,-0.55917 0.696981,-0.55917 v 0 c 0.4169164,-0.49443 0.3935865,-0.33938 -0.4444785,-0.15397 -0.9181452,-0.0121 -1.9972187,0.007 -2.58311,-0.8783 -0.1518766,-0.22946 -0.2275595,-0.51844 -0.2272694,-0.79362 2.858e-4,-0.27177 0.5005594,-0.79134 0.2289314,-0.78251 -0.7171846,0.0233 -1.32149748,0.55967 -1.9822462,0.83951 0.30072082,-0.16326 0.58156928,-0.37016 0.90216244,-0.48976 1.91228746,-0.71343 4.00719006,-0.0839 5.69557936,0.87085 0.8177273,0.64405 1.8341318,1.34243 1.8704774,2.52191 0.030278,0.98259 -0.8625769,1.61439 -1.5180852,2.16372 0.5132228,-0.27459 1.0804675,-0.46609 1.5396691,-0.82377 0.3201913,-0.24939 -0.7336332,0.34975 -1.113744,0.49202 -1.5048124,0.56319 -3.1106099,0.83288 -4.7028129,0.98977 0,0 -2.36280496,1.74427 -2.36280496,1.74427 z" />
    <path
       style="fill:#ffffff;stroke-width:0.264583"
       id="path540"
       d="m 21.762061,184.41729 c -3.888411,-1.54638 -6.037625,0.43221 -9.388453,2.45115 -0.281483,0.29952 -0.612756,0.55907 -0.844448,0.89858 -0.593392,0.86954 -0.907985,2.15941 -0.35264,3.13252 0.453853,0.79526 1.062082,1.03126 1.803825,1.48114 0.39208,0.10553 0.772508,0.27341 1.176239,0.31658 1.068054,0.11421 2.288623,-0.23131 3.196486,-0.78967 3.335441,-2.05136 2.774594,-0.93522 3.450696,-2.70194 -0.07017,-0.19017 -0.07124,-0.42323 -0.21052,-0.5705 -0.175739,-0.18583 -0.429469,-0.2927 -0.674657,-0.3655 -1.15886,-0.34406 -1.453514,0.21442 -2.650557,0.82301 0,0 -0.403762,0.30557 -0.403762,0.30557 v 0 c -0.134767,0.21243 -0.516597,0.41217 -0.404303,0.63729 0.177574,0.35599 1.542312,-0.3395 1.467494,0.48683 -0.6238,1.18681 -0.344199,0.42939 1.843732,-0.55264 0.302382,-0.13572 -0.568433,0.34491 -0.872321,0.47722 -1.098378,0.47824 -2.169873,0.65476 -3.32231,0.25062 -0.657297,-0.37327 -1.261279,-0.5876 -1.652314,-1.28999 -0.495543,-0.8901 -0.10443,-2.0777 0.457119,-2.82632 0.235277,-0.31365 0.557723,-0.55125 0.836584,-0.82688 -0.52025,0.2647 -1.071547,0.47567 -1.560751,0.79411 -0.376231,0.24491 0.797622,-0.4179 1.219317,-0.57186 1.493752,-0.54534 2.986061,-0.46475 4.478052,0.0279 0,0 2.407492,-1.58722 2.407492,-1.58722 z" />
    <path
       style="fill:#ffffff;stroke-width:0.264583"
       id="path546"
       d="m -138.53971,215.56421 c 1.83973,-2.12296 3.99641,-3.93717 6.25242,-5.59786 2.02177,-1.31562 0.98229,-0.66662 3.03807,-1.89585 0.37299,-0.22303 -1.52918,0.81273 -1.11918,0.66868 0.52736,-0.18528 0.98434,-0.52993 1.47681,-0.79433 2.10707,-1.13122 0.85862,-0.45136 2.87339,-1.55883 1.85734,-1.12183 3.8294,-2.08976 5.59824,-3.36127 0.44807,-0.32208 0.85776,-0.61851 1.17023,-1.07147 -0.0432,-0.14594 -0.0483,-0.30921 -0.12967,-0.43781 -0.71164,-1.12403 -3.15332,-1.16073 -4.2619,-1.23173 -1.81039,-0.006 -3.65405,0.15542 -5.33635,0.87746 -1.76284,0.7566 -3.33095,1.90457 -4.97461,2.89374 -0.41565,0.3994 -1.68945,1.23646 -1.63682,1.95684 0.0949,1.29936 2.20838,1.34217 2.99831,1.46837 0.65512,-0.003 1.31206,0.04 1.96535,-0.009 2.35269,-0.17649 4.62527,-0.86739 6.87993,-1.51111 3.69643,-1.05536 0.85202,-0.2769 4.49801,-1.25467 2.05732,-0.60833 4.20585,-0.81215 6.29247,-1.27385 0.74703,-0.16529 1.48029,-0.3876 2.22043,-0.58139 0,0 1.65651,-1.23608 1.65651,-1.23608 v 0 c -0.42958,-0.0439 -0.85776,-0.15893 -1.28873,-0.13186 -0.65035,0.0409 -1.28572,0.21368 -1.92619,0.33379 -1.86468,0.3497 -2.52736,0.51644 -4.41241,0.93901 -3.28981,0.87677 -1.18869,0.29857 -4.51139,1.25864 -2.22593,0.64316 -4.4693,1.34997 -6.79149,1.55197 -0.63346,0.0551 -1.27155,0.0204 -1.90733,0.0306 -0.24306,-0.0331 -2.68601,-0.0669 -2.60208,-0.98352 0.0601,-0.65607 1.26469,-1.38757 1.66654,-1.77115 -0.62147,0.33141 -1.2306,0.68705 -1.86439,0.99421 -0.39457,0.19123 0.7501,-0.45722 1.14586,-0.64597 1.66102,-0.79219 3.49848,-1.01884 5.31964,-1.03259 0.59105,0.0276 3.878,0.13836 4.01255,1.07392 -0.5367,0.57861 -1.21637,1.02774 -1.87617,1.45327 -0.3173,0.20463 -1.30336,0.75966 -0.96271,0.59683 0.5077,-0.24268 0.97724,-0.55822 1.46586,-0.83734 -3.86478,2.14693 -7.83706,4.12839 -11.48578,6.63889 -2.24098,1.69542 -4.39378,3.52495 -6.23018,5.66243 0,0 2.78676,-1.18088 2.78676,-1.18088 z" />
    <path
       style="fill:#ffffff;stroke-width:0.264583"
       id="path550"
       d="m 189.62404,181.45571 c 3.43049,-2.47841 6.75826,-5.08914 10.04415,-7.75529 2.60424,-2.2465 5.19101,-4.556 7.26056,-7.32162 1.34879,-1.80245 1.49075,-2.19879 2.59553,-4.15213 1.4493,-2.96732 3.01678,-6.14741 2.83997,-9.55119 -0.0311,-0.59926 -0.17493,-1.18732 -0.26239,-1.78098 -0.73091,-2.63032 -2.19673,-5.09971 -4.44825,-6.71633 -0.53362,-0.38314 -1.12162,-0.68423 -1.68243,-1.02634 -4.01605,-1.96407 -8.37667,-3.03389 -12.79689,-3.58879 -0.98971,-0.12425 -1.98539,-0.19518 -2.97809,-0.29278 -3.91368,-0.23495 -7.89901,-0.26207 -11.77485,0.4315 -2.54656,0.4557 -3.35965,0.7994 -5.80903,1.57455 -3.7003,1.52334 -7.30915,3.28956 -9.84053,6.4973 -0.55781,0.70685 -1.08751,1.44849 -1.48548,2.25621 -1.0087,2.04729 -0.99741,3.15486 -1.32685,5.36987 0.0401,0.94893 -0.002,1.90485 0.12016,2.8468 0.47877,3.70588 2.50632,8.09048 5.3626,10.56963 0.80476,0.69851 1.76623,1.19274 2.64935,1.78911 0.92637,0.44311 1.82268,0.95547 2.7791,1.32932 3.35256,1.31049 7.53446,1.92491 11.13251,1.90589 0.80605,-0.004 1.60955,-0.0912 2.41432,-0.13685 4.26429,-0.49677 7.13229,-1.96437 10.77689,-4.40009 0.55496,-0.37088 1.0297,-0.85938 1.46381,-1.36642 0.44004,-0.51396 0.76168,-1.11848 1.14252,-1.67772 0.25285,-0.60615 0.60881,-1.17897 0.75856,-1.81844 0.15552,-0.6641 0.1731,-1.35954 0.14525,-2.04103 -0.097,-2.37417 -1.16697,-4.45828 -2.80509,-6.15279 -0.6157,-0.63689 -1.35748,-1.13848 -2.03622,-1.70771 -1.60182,-0.92113 -2.61557,-1.72072 -4.49178,-1.97756 -3.15653,-0.43211 -6.23855,1.95684 -8.25789,3.99396 -0.47731,0.48151 -0.52806,1.24895 -0.7921,1.87343 -0.0478,0.66884 -0.18755,1.33743 -0.14344,2.00653 0.13507,2.04905 1.13306,3.72746 2.85902,4.82931 1.41284,0.90195 1.88946,0.82242 3.46924,1.08315 0.53055,-0.07 1.07645,-0.0652 1.59164,-0.20998 1.49144,-0.41901 4.71777,-2.83697 5.10919,-3.16553 0.54162,-0.45462 0.7593,-1.55901 0.61206,-2.21231 -0.0853,-0.37843 -0.34947,-0.69268 -0.5242,-1.03903 -0.34047,-0.24732 -0.63331,-0.57931 -1.02142,-0.74196 -0.72827,-0.3052 -1.94562,-0.34551 -2.67199,0.004 -1.37589,0.66183 -3.71451,1.56448 -4.63831,3.19333 -0.15948,0.28119 -0.20933,0.61171 -0.31399,0.91756 0.10365,0.26248 0.12128,0.57846 0.31093,0.78743 1.52322,1.67836 5.31211,-1.47577 5.88464,-1.93823 0.19038,-0.15378 0.12022,-0.47447 0.18033,-0.7117 -0.8971,-0.74942 -0.3175,-0.51187 -1.87124,-0.17252 0,0 -1.2382,0.89825 -1.2382,0.89825 v 0 c 0.13564,0.41037 0.0578,0.2019 0.2364,0.6243 -0.53551,1.24531 -0.47385,0.76761 1.86972,-0.47119 0.25564,-0.13513 -0.51884,0.26702 -0.79952,0.33654 -0.32748,0.0811 -1.09074,0.14434 -1.39721,-0.15791 -0.1448,-0.1428 -0.13553,-0.3835 -0.20329,-0.57525 0.11548,-0.26987 0.18183,-0.56657 0.34643,-0.80961 0.20925,-0.30897 1.13167,-0.84336 0.75908,-0.8228 -0.64156,0.0354 -1.30897,0.37952 -1.71723,0.87569 -0.284,0.34516 0.84696,-0.31752 1.29202,-0.35891 1.19771,-0.11139 1.25361,0.1355 2.1556,0.74027 0.39455,0.77833 0.68142,0.95736 0.36102,1.87364 -0.12744,0.36443 -0.97877,0.89626 -0.60384,0.98834 0.6176,0.15167 1.14003,-0.65691 1.77446,-0.70085 0.98558,-0.0683 -3.76983,1.64607 -2.80368,0.96102 -0.56217,-0.0723 -1.14086,-0.0635 -1.68651,-0.21688 -1.09867,-0.30884 -2.35224,-1.01618 -3.09965,-1.89695 -1.35062,-1.5916 -1.36131,-3.36205 -1.05836,-5.30004 0.27786,-0.59152 1.07576,-1.16757 0.83358,-1.77457 -0.18278,-0.45811 -1.70567,0.61631 -1.46819,0.18402 0.32454,-0.59076 1.18302,-0.6776 1.83444,-0.85072 2.44888,-0.65079 4.54833,0.37086 6.56663,1.65681 0.66354,0.5507 1.39065,1.03275 1.99062,1.6521 2.03637,2.10217 3.19472,5.03591 2.37436,7.94329 -0.1744,0.61807 -0.52776,1.17098 -0.79164,1.75647 -0.39471,0.53787 -0.73301,1.1221 -1.18413,1.61362 -0.44946,0.4897 -1.25513,0.69495 -1.50137,1.31235 -0.17123,0.42934 1.67678,-0.76203 1.23188,-0.63667 -0.65358,0.18416 -1.22813,0.58471 -1.86672,0.81555 -1.70336,0.61571 -2.40799,0.6551 -4.20547,0.96854 -0.80186,0.0576 -1.6018,0.15756 -2.40558,0.17294 -3.5774,0.0685 -7.74978,-0.4981 -11.09768,-1.76514 -0.9486,-0.359 -1.83969,-0.85464 -2.75953,-1.28196 -0.86222,-0.57692 -1.79936,-1.05518 -2.58667,-1.73076 -2.90071,-2.48904 -4.76386,-6.64618 -5.20429,-10.38971 -0.10879,-0.92473 -0.0564,-1.86137 -0.0847,-2.79206 0.36107,-2.22071 0.33992,-3.19997 1.39218,-5.23657 1.85431,-3.58892 1.05092,-0.9096 3.43983,-4.1899 0.10869,-0.14925 -0.71095,0.16528 -0.54845,0.0776 0.8534,-0.46032 1.76386,-0.80594 2.64579,-1.2089 2.42684,-0.79303 3.26238,-1.15052 5.78774,-1.63311 3.87339,-0.74019 7.85999,-0.75259 11.78089,-0.53098 5.43167,0.52126 10.71599,1.30408 15.65152,3.78859 0.55597,0.32416 1.13653,0.60942 1.66792,0.97247 2.23218,1.52505 3.67112,3.91122 4.38609,6.47492 0.0807,0.57398 0.21684,1.14287 0.24213,1.72195 0.14582,3.33853 -1.40355,6.47167 -2.83071,9.37922 -1.08855,1.88909 -1.27854,2.35966 -2.60576,4.09857 -2.08428,2.73082 -4.6635,5.0252 -7.25985,7.25267 -3.26879,2.65468 -6.60366,5.21934 -9.98529,7.72773 0,0 2.84327,-1.13949 2.84327,-1.13949 z" />
    <path
       style="fill:#ffffff;stroke-width:0.264583"
       id="path552"
       d="m 114.85984,165.05873 c 2.28143,3.03955 5.69694,4.86709 9.03451,6.51795 2.57104,1.11478 5.22626,2.08171 7.97254,2.66813 1.58659,0.33879 2.72849,0.46704 4.3324,0.68885 2.83888,0.28618 5.72022,0.49523 8.57298,0.26294 1.60934,-0.13104 2.14048,-0.28069 3.6865,-0.58846 2.89015,-0.64186 5.25039,-2.01784 7.74626,-3.64385 0.33246,-0.21658 0.61452,-0.50762 0.87545,-0.80654 0.27457,-0.31455 0.48137,-0.68237 0.72206,-1.02355 0.35591,-0.74264 0.75825,-1.41966 0.85833,-2.25832 0.25726,-2.15577 -0.93164,-3.96883 -2.06422,-5.6658 -1.85149,-2.40687 -4.53057,-3.92286 -7.39544,-4.83329 -0.55127,-0.17518 -1.12075,-0.28676 -1.68113,-0.43014 -2.07234,-0.36124 -3.84321,-0.21582 -5.65957,0.89374 -4.19036,2.55976 -3.05071,1.4063 -4.88055,3.60728 -0.22815,0.4467 -0.51031,0.86971 -0.68446,1.34011 -0.51196,1.38287 -0.86183,3.80007 -0.54387,5.25278 0.3421,1.56298 0.97029,2.24654 1.83195,3.55372 2.09285,2.42164 4.88041,4.15645 8.17236,4.10014 0.5329,-0.009 1.05882,-0.12318 1.58823,-0.18477 2.90723,-1.01641 6.44078,-2.42527 6.89469,-5.81094 0.0607,-0.45246 0.0766,-0.91983 -0.002,-1.36954 -0.0767,-0.43913 -0.30455,-0.83793 -0.45683,-1.25689 -1.33165,-2.20289 -3.22659,-2.92094 -5.70169,-2.93424 -0.22331,0.0412 -0.4683,0.0192 -0.66994,0.12359 -1.18043,0.61142 -2.34331,1.26514 -3.44568,2.00814 -0.55054,0.37107 -0.12762,1.28769 0.32289,1.51656 0.31973,0.16243 0.69274,0.1859 1.03912,0.27886 0,0 1.56742,-0.9522 1.56742,-0.9522 v 0 c 0.004,-0.19348 -0.0599,-1.58932 0.0277,-1.78117 0.0598,-0.13083 0.40327,-0.39441 0.27251,-0.33452 -4.42622,2.02713 -3.05898,1.54111 -1.89407,1.16377 2.32932,-0.0496 4.16989,0.50794 5.46104,2.58356 0.13451,0.38182 0.3434,0.74512 0.40352,1.14545 0.12244,0.81533 -0.0915,1.87521 -0.47591,2.59286 -0.22781,0.42533 -1.32807,0.97081 -0.87984,1.1494 0.59281,0.23621 1.19532,-0.46846 1.73529,-0.80854 0.43809,-0.27592 -0.95109,0.40943 -1.42664,0.61415 -0.51852,0.0814 -1.03148,0.21552 -1.55557,0.24419 -3.21978,0.17618 -5.9678,-1.452 -8.02698,-3.81257 -0.82739,-1.27871 -1.40008,-1.89077 -1.70799,-3.412 -0.30359,-1.49984 0.0516,-3.68739 0.62959,-5.08789 0.18588,-0.45034 0.48004,-0.84792 0.72006,-1.27189 1.74536,-1.92448 0.70914,-0.52999 -1.00548,-0.0833 -0.45369,0.11819 0.77788,-0.5322 1.20519,-0.72509 1.38808,-0.62658 2.89389,-0.62527 4.37121,-0.4264 0.55916,0.12848 1.12718,0.22315 1.67748,0.38545 2.82454,0.83302 5.46475,2.30931 7.29693,4.64718 1.09132,1.63797 2.20254,3.35447 1.87673,5.43132 -0.13225,0.84302 -0.50836,1.40584 -0.89672,2.14586 -0.25022,0.3197 -0.46961,0.66613 -0.75064,0.95911 -0.60622,0.63198 -2.80964,2.05006 1.01898,-0.28155 0.34586,-0.21062 -0.71769,0.37711 -1.08981,0.53683 -1.06255,0.45607 -1.64499,0.58604 -2.77791,0.91739 -1.53507,0.33245 -2.07631,0.49533 -3.67548,0.64581 -2.84404,0.26762 -5.72086,0.0717 -8.55439,-0.20376 -4.2482,-0.55563 -8.4473,-1.42561 -12.38351,-3.1808 -3.33972,-1.58368 -6.73776,-3.34303 -9.09482,-6.28141 0,0 -2.53283,1.47432 -2.53283,1.47432 z" />
    <path
       style="fill:#ffffff;stroke-width:0.264583"
       id="path554"
       d="m 184.69332,182.3049 c -3.14838,0.70394 -6.35191,1.17302 -9.58612,1.06393 -0.99845,-0.0337 -1.99294,-0.14258 -2.98941,-0.21387 -4.48407,-0.58298 -9.26794,-1.78607 -13.10435,-4.29036 -0.5434,-0.35471 -1.03365,-0.78484 -1.55047,-1.17726 -1.13456,-1.15692 -3.09135,-2.75103 -2.46663,-4.6467 0.36818,-1.11721 0.99766,-1.35026 1.90375,-2.04433 -0.28941,0.24835 -1.2406,0.66265 -0.86825,0.74505 0.65157,0.14419 1.28016,-0.38698 1.9363,-0.50869 0.63698,-0.11815 1.28468,-0.19086 1.93227,-0.20889 1.16616,-0.0325 2.44947,0.12909 3.56823,0.47154 0.5379,0.16465 1.04301,0.42181 1.56452,0.63271 1.91429,1.13346 4.04983,2.66538 4.54749,5.00078 0.0644,0.30219 0.0357,0.61693 0.0535,0.9254 -0.2064,0.70245 -0.19378,0.97571 -0.72814,1.52279 -0.21998,0.22523 -1.03222,0.71678 -0.75515,0.56728 0.65411,-0.35294 1.40599,-0.61784 1.89164,-1.18049 0.26534,-0.30741 -0.76889,0.2733 -1.16891,0.34317 -0.46268,0.0808 -0.93669,0.0709 -1.40503,0.10641 -1.87105,-0.11688 -4.18296,-0.2981 -5.30911,-2.05261 -0.1393,-0.21703 -0.20407,-0.4737 -0.30611,-0.71056 -0.75327,-0.0799 1.03186,-1.36364 0.64864,-1.14825 -0.66614,0.37438 -1.43003,0.68362 -1.89498,1.29003 -0.20735,0.27044 0.67206,-0.13323 1.01278,-0.13942 0.33986,-0.006 0.67512,0.0847 1.01456,0.10255 0.45268,0.0238 0.90649,0.0148 1.35974,0.0223 0,0 1.14095,-0.73211 1.14095,-0.73211 v 0 c -0.0408,-0.31506 0.0793,-0.69981 -0.12255,-0.94518 -0.23968,-0.29138 -1.60977,-0.40248 -1.89122,-0.28211 -0.2099,0.0898 -3.56351,1.20599 -4.03585,2.63081 -0.0823,0.24838 -0.0285,0.52258 -0.0427,0.78387 0.11865,0.2633 0.19895,0.5475 0.35595,0.78991 1.18811,1.83445 3.48834,2.12992 5.47867,2.29098 0.4662,-0.006 0.93505,0.0324 1.3986,-0.0176 1.89515,-0.20426 3.33333,-1.38408 4.95728,-2.39671 0.86233,-0.53771 1.21694,-1.4176 1.34301,-2.37547 -0.0363,-0.33222 -0.0276,-0.67249 -0.10883,-0.99665 -0.60244,-2.40396 -2.7798,-3.97633 -4.77644,-5.1764 -0.53666,-0.22281 -1.05576,-0.4938 -1.60997,-0.66841 -1.81992,-0.57338 -3.77082,-0.65521 -5.64487,-0.33775 -0.67286,0.11399 -1.36456,0.20886 -1.98958,0.48286 -1.51998,0.66635 -2.93669,1.547 -4.40504,2.3205 -0.92915,0.81725 -1.52126,1.05458 -1.82256,2.29381 -0.49199,2.02346 1.43938,3.63204 2.68532,4.86271 0.53125,0.39937 1.0349,0.83836 1.59373,1.19812 2.96956,1.91168 6.70574,3.1404 10.13744,3.8551 1.02597,0.21367 2.06959,0.33145 3.10438,0.49718 2.38168,0.19714 3.37159,0.35436 5.72643,0.2669 2.3001,-0.0854 4.58547,-0.51365 6.83052,-0.9908 0,0 2.39659,-1.82606 2.39659,-1.82606 z" />
    <path
       style="fill:#ffffff;stroke-width:0.264583"
       id="path556"
       d="m 183.30725,184.17046 c 1.75099,-0.87412 3.18414,-1.87521 4.55777,-3.1929 0.52286,-0.50157 0.8944,-0.8385 1.20609,-1.50269 0.12706,-0.27076 0.17825,-0.571 0.26738,-0.8565 -0.002,-0.31801 0.0584,-0.64244 -0.005,-0.95403 -0.35099,-1.72002 -2.0798,-2.95833 -3.7207,-3.2724 -0.42574,-0.0815 -0.86637,-0.0315 -1.29956,-0.0473 -0.3567,0.124 -0.74557,0.17892 -1.07011,0.37201 -1.15834,0.68916 -2.32959,1.38282 -3.35321,2.25967 -0.38606,0.33069 -0.2643,1.26176 -0.0392,1.61328 0.1483,0.23158 0.3931,0.39534 0.63417,0.52768 0.23263,0.1277 0.50657,0.15837 0.75986,0.23755 1.67879,0.0313 1.35405,0.14337 3.70094,-1.77456 0.21323,-0.17426 -0.55074,-0.007 -0.8261,-0.0103 0,0 -1.49608,0.90791 -1.49608,0.90791 v 0 c -2.37483,1.14754 3.73012,-1.49968 1.17123,-0.87951 -0.64526,-0.12583 -1.41159,-0.24402 -1.29287,-1.13331 0.0333,-0.24954 0.54283,-0.72506 0.29273,-0.69623 -0.24324,0.028 -3.77844,1.73854 -1.00008,0.40441 0.41973,-0.0129 0.84289,-0.0937 1.25918,-0.0386 1.51126,0.20012 3.44002,1.16199 3.74297,2.81707 0.0525,0.28694 -0.0229,0.58296 -0.0343,0.87443 -0.0979,0.26381 -0.16645,0.54047 -0.29377,0.79141 -0.42121,0.83018 -1.1657,1.47369 -1.86268,2.06354 -0.26281,0.22242 -1.14044,0.7309 -0.80718,0.64444 0.59316,-0.15387 1.08429,-0.57131 1.62643,-0.85697 0,0 -2.11776,1.70179 -2.11776,1.70179 z" />
    <path
       style="fill:#ffffff;stroke-width:0.264583"
       id="path558"
       d="m 182.2963,156.13491 c -0.25291,0.16203 -0.50579,0.3241 -0.75873,0.48608 -0.30216,0.19349 -0.6027,0.38953 -0.90657,0.58031 -0.33643,0.21123 -1.35229,0.83434 -1.01426,0.62569 2.23614,-1.38022 1.41562,-0.76503 0.0478,-0.31543 -0.45083,0.14819 -0.91785,0.2416 -1.37677,0.36241 -0.4861,0.0374 -0.97081,0.11925 -1.4583,0.1122 -2.28314,-0.033 -4.46211,-1.10413 -6.29918,-2.3851 -0.50404,-0.35146 -0.96409,-0.76212 -1.44614,-1.14319 -1.4454,-1.49137 -3.52792,-3.86293 -2.35868,-6.13334 0.21516,-0.41778 0.57784,-0.74124 0.86676,-1.11187 0.49108,-0.32127 0.90833,-0.80494 1.47325,-0.96382 0.24073,-0.0677 -0.61886,0.64424 -0.36895,0.65323 0.84941,0.0305 1.64762,-0.42423 2.4837,-0.5772 1.39047,-0.25438 3.45432,-0.46541 4.88516,-0.47998 0.67495,-0.007 1.34847,0.0637 2.0227,0.0955 1.78385,0.36665 3.60297,1.08335 4.34879,2.89302 0.13632,0.33075 0.2609,0.68314 0.2615,1.04089 5.3e-4,0.38943 -0.1719,0.75967 -0.25784,1.1395 -0.68663,1.10321 -0.77951,1.41674 -1.77373,2.3181 -0.38736,0.35117 -1.37485,0.43793 -1.25121,0.94594 0.11958,0.49135 1.59413,-0.40548 1.28529,-0.8059 -0.32325,-0.4191 -0.98109,0.40914 -1.49562,0.5332 -0.50547,0.12189 -1.0313,0.13365 -1.54695,0.20047 -0.48087,-0.0571 -0.97309,-0.0528 -1.44262,-0.17131 -1.08606,-0.27413 -3.01515,-1.31466 -2.34143,-2.77157 0.13432,-0.29046 0.40662,-0.49426 0.60993,-0.74139 0.35014,-0.20753 1.22907,-0.98831 1.05041,-0.6226 -0.25255,0.51693 -1.34298,0.56091 -1.30058,1.13467 0.034,0.45946 0.92434,-0.0944 1.3816,-0.0382 1.35712,0.16703 2.30761,0.82343 3.31754,1.65782 1.03144,1.65797 0.0468,-0.19107 0.46139,1.40403 0.0468,0.18019 0.19042,0.31997 0.28563,0.47995 0,0 1.72172,-0.81263 1.72172,-0.81263 v 0 c 0.95509,-1.35627 1.18503,-1.34094 0.18563,-2.73544 -1.07147,-0.86061 -2.09747,-1.55799 -3.50622,-1.78732 -2.41445,-0.39304 -4.56945,1.19369 -6.43809,2.55348 -0.18357,0.30026 -0.44655,0.56461 -0.55071,0.90077 -0.49972,1.61286 1.33282,2.78062 2.60264,3.15689 0.4791,0.14197 0.98694,0.15725 1.48041,0.23587 0.51788,-0.0397 1.04378,-0.0199 1.55363,-0.11902 1.98258,-0.38536 4.16817,-1.91322 5.6375,-2.83164 0.82446,-0.51534 1.74285,-1.41413 2.30309,-2.20844 0.28926,-0.41011 0.48847,-0.87684 0.73271,-1.31526 0.0679,-0.42625 0.22386,-0.8476 0.20378,-1.27876 -0.018,-0.38565 -0.1602,-0.76092 -0.31527,-1.11448 -0.55197,-1.25844 -1.66111,-2.19218 -2.9519,-2.64055 -0.57143,-0.1985 -1.18202,-0.25805 -1.77303,-0.38708 -2.44003,-0.0598 -4.64377,-0.003 -7.06682,0.40743 -0.83686,0.14189 -1.69794,0.22812 -2.4899,0.53352 -3.86685,1.49114 -3.74375,1.53904 -6.0901,3.27512 -0.27535,0.40689 -0.62847,0.77085 -0.82607,1.22066 -1.06397,2.42206 1.03618,4.79817 2.5574,6.39692 0.48707,0.39121 0.95204,0.81164 1.46121,1.17361 2.42559,1.72441 4.84589,2.77297 7.85532,2.488 0.9518,-0.22693 1.84896,-0.38021 2.73209,-0.83179 2.17466,-1.11201 4.26366,-2.38543 6.29286,-3.74141 0,0 -2.69581,1.05939 -2.69581,1.05939 z" />
    <path
       style="fill:#ffffff;stroke-width:0.264583"
       id="path560"
       d="m 182.15003,159.34025 c -1.33222,-0.59345 -3.13911,-0.85429 -4.56303,-0.43969 -1.61756,0.47098 -4.06359,2.70023 -4.83921,3.28654 -0.20979,0.48726 -0.52542,0.94155 -0.62936,1.46176 -0.44901,2.24712 1.15696,4.35506 2.93887,5.4972 0.41733,0.2675 0.89079,0.43516 1.33619,0.65274 0.40532,0.0952 0.80034,0.2611 1.21597,0.2855 1.56731,0.092 3.40596,-1.54662 4.22198,-2.2665 0.36471,-0.32174 0.29313,-1.57506 0.21564,-1.94047 -0.0712,-0.33598 -0.23954,-0.64377 -0.35932,-0.96566 -0.85388,-1.21813 -1.97485,-2.18196 -3.53638,-2.16886 -0.28641,0.002 -0.59234,-0.004 -0.85087,0.11978 -1.04687,0.49923 -2.0139,1.15104 -3.02086,1.72656 0.27707,0.0526 0.55413,0.10511 0.8312,0.15767 0,0 1.22267,-0.65819 1.22267,-0.65819 v 0 c 0.22223,-0.18601 0.44446,-0.37202 0.66669,-0.55803 -0.68934,0.37235 -1.43983,0.64886 -2.06803,1.11706 -0.21931,0.16345 0.5295,-0.15006 0.80202,-0.1735 1.47504,-0.12689 2.54955,0.73107 3.37955,1.8647 0.25351,0.70848 0.46997,1.0118 0.32793,1.78616 -0.0531,0.28941 -0.62175,0.8166 -0.32752,0.81973 0.68465,0.007 1.30242,-0.45256 1.89056,-0.80312 0.28436,-0.1695 -0.63036,0.24393 -0.96136,0.24926 -0.40488,0.007 -0.79713,-0.14302 -1.1957,-0.21453 -0.43397,-0.1984 -0.89542,-0.3453 -1.30191,-0.59522 -1.69857,-1.04431 -3.2545,-3.04225 -2.73608,-5.16188 0.12152,-0.49685 0.44274,-0.92223 0.66411,-1.38335 -0.49479,0.10613 -1.2587,0.77132 -1.48436,0.31838 -0.21888,-0.43932 0.8206,-0.55806 1.28312,-0.72229 1.44903,-0.5145 3.28185,-0.14149 4.74468,0.1287 0,0 2.13281,-1.42045 2.13281,-1.42045 z" />
    <path
       style="fill:#ffffff;stroke-width:0.264583"
       id="path562"
       d="m 193.03472,152.53481 c 0.62743,-1.29152 1.5888,-2.2379 2.81042,-2.99131 0.18751,-0.11564 -0.68104,0.50008 -0.46253,0.47205 0.76539,-0.0982 1.45706,-0.51791 2.20791,-0.69589 0.72443,-0.17173 1.47057,-0.23358 2.20586,-0.35037 0.71158,0.0637 1.43851,0.0309 2.13476,0.19107 1.64577,0.37856 3.51534,1.47832 4.33669,3.01776 0.5748,1.07733 0.37559,1.58421 0.28548,2.71741 0.7262,1.19173 -1.71645,1.40262 -1.47011,2.26972 0.11466,0.40361 1.44711,-0.59094 1.04317,-0.70442 -0.62416,-0.17534 -1.24562,0.37993 -1.88806,0.46708 -1.67052,0.22659 -2.55829,0.0383 -4.20593,-0.13154 -1.46159,-0.3319 -4.63801,-0.87345 -4.28382,-3.10801 0.15376,-0.97009 0.84493,-1.37965 1.50186,-1.97932 -2.82665,1.73237 -0.47567,0.32408 0.5275,0.80646 0.12494,0.0601 0.13783,0.24212 0.22577,0.3493 0.0777,0.0947 0.17838,0.16791 0.26757,0.25186 0,0 1.48896,-0.6908 1.48896,-0.6908 v 0 c 0.25393,-0.34281 0.65301,-0.61591 0.76179,-1.02841 0.0554,-0.21019 -0.16063,-0.43788 -0.34462,-0.55363 -1.61492,-1.016 -5.03526,1.60695 -5.59146,1.96672 -0.69261,0.73566 -1.31501,1.13476 -1.39736,2.24315 -0.17747,2.38863 2.82558,3.0088 4.52467,3.38892 1.61491,0.19065 2.58821,0.39204 4.22913,0.23192 2.44605,-0.23868 5.54177,-1.61593 6.78171,-3.79157 0.23139,-0.40601 0.31857,-0.87868 0.47786,-1.31802 0.0446,-1.24209 0.22463,-1.72996 -0.41453,-2.89376 -0.87658,-1.59608 -2.78313,-2.75591 -4.50212,-3.18574 -0.71241,-0.17813 -1.45994,-0.16005 -2.18991,-0.24008 -1.53868,0.22382 -3.03365,0.33184 -4.47776,0.98886 -1.53131,0.69668 -3.00749,1.51525 -4.4511,2.37912 -1.25532,0.7512 -2.22113,1.83693 -2.70441,3.21034 0,0 2.57261,-1.28887 2.57261,-1.28887 z" />
    <path
       style="fill:#ffffff;stroke-width:0.264583"
       id="path564"
       d="m 214.00263,138.25799 c -1.9855,-0.21637 -4.41528,0.95338 -5.03279,2.9446 -0.29741,0.95905 -0.16344,1.45182 -0.0851,2.42583 0.21088,0.99576 0.55837,2.0159 1.65659,2.31586 0.23721,0.0648 0.51861,0.13385 0.73738,0.0216 0.51319,-0.26337 0.89612,-0.72655 1.34418,-1.08983 0,0 -0.67028,0.30392 -0.67028,0.30392 v 0 c 0.33958,-0.14188 0.75225,-0.17182 1.01876,-0.42563 0.12225,-0.11643 -0.34487,-0.005 -0.50208,-0.0664 -0.2144,-0.0839 -0.42671,-0.19735 -0.58912,-0.36053 -0.64717,-0.65021 -0.56355,-0.96014 -0.74988,-1.85335 0.008,-0.90499 -0.0775,-1.49956 0.28242,-2.35867 0.13568,-0.32385 0.92677,-0.84927 0.5771,-0.8812 -0.61092,-0.0558 -1.15396,0.44405 -1.66612,0.78174 -0.21117,0.13923 0.48794,-0.14306 0.73937,-0.1707 0.22019,-0.0242 0.44291,0.011 0.66437,0.0164 0,0 2.27518,-1.6036 2.27518,-1.6036 z" />
    <path
       style="fill:#000000;stroke-width:0.264583"
       id="path568"
       d="m 210.12746,144.70587 c 0.38767,0.70235 1.54602,2.53399 2.59985,1.92394 0.95172,-0.55094 1.83005,-1.21988 2.74507,-1.82982 0.18819,-0.55878 0.24556,-1.68739 -0.32539,-2.09152 -0.31606,-0.22371 -0.73806,-0.2346 -1.10709,-0.35189 0,0 -1.46086,0.90927 -1.46086,0.90927 v 0 c 0.0672,0.26201 0.11612,0.52938 0.20152,0.78603 0.24572,0.73844 0.53604,1.063 0.12358,1.84047 0.67715,-0.32223 1.35426,-0.64459 2.03147,-0.96671 0.15743,-0.0749 -0.29841,0.21031 -0.47212,0.225 -0.19619,0.0166 -0.40074,-0.0442 -0.57469,-0.13644 -0.64921,-0.34416 -0.97813,-1.05623 -1.29646,-1.67178 0,0 -2.46488,1.36345 -2.46488,1.36345 z" />
  </g>
</svg>
